<svg width="113" height="24" viewBox="0 0 113 24" fill="none" xmlns="http://www.w3.org/2000/svg">
<path d="M12.371 15.1663C12.5402 14.7442 12.8044 14.4487 13.1638 14.2799C13.5232 14.09 13.9038 14.0161 14.3055 14.0583C14.7283 14.1005 15.1405 14.2483 15.5422 14.5015C15.965 14.7337 16.3139 15.0502 16.5887 15.4512C16.8635 15.8522 17.0432 16.327 17.1278 16.8757C17.2335 17.4244 17.1806 18.0153 16.9692 18.6484C16.3561 20.189 15.4048 21.4552 14.1152 22.4471C12.8467 23.4179 11.3986 23.9349 9.77069 23.9982C8.6925 24.0193 7.69887 23.8505 6.7898 23.4917C5.90188 23.133 5.08795 22.6476 4.34801 22.0356C3.60807 21.4025 2.96327 20.6744 2.4136 19.8513C1.86394 19.0283 1.4094 18.1525 1.05001 17.2239C0.690608 16.2742 0.415774 15.314 0.225505 14.3432C0.0563762 13.3725 -0.0176176 12.4333 0.00352351 11.5259C0.0246646 10.1752 0.246646 8.85623 0.669467 7.5689C1.11343 6.28156 1.72652 5.1314 2.50874 4.11842C3.29096 3.08433 4.23174 2.22962 5.33107 1.5543C6.43041 0.857872 7.65659 0.446347 9.00962 0.319723C10.2358 0.1931 11.3668 0.309172 12.4028 0.667938C13.4598 1.0267 14.3583 1.5543 15.0982 2.25072C15.8382 2.94715 16.3878 3.78076 16.7472 4.75153C17.1278 5.7012 17.2758 6.71419 17.1912 7.79049C17.1489 8.31808 16.9904 8.76126 16.7155 9.12003C16.4618 9.45769 16.1553 9.72149 15.7959 9.91142C15.4576 10.1014 15.0771 10.2174 14.6543 10.2596C14.2526 10.2807 13.8721 10.2491 13.5127 10.1647C13.1744 10.0591 12.889 9.89032 12.6565 9.65818C12.4239 9.42603 12.3076 9.13058 12.3076 8.77181C12.3288 7.71662 12.0751 6.95688 11.5465 6.4926C11.018 6.02832 10.4049 5.81728 9.70727 5.85948C8.84049 5.9228 8.12169 6.27101 7.55088 6.90412C6.98007 7.53724 6.54668 8.30753 6.25071 9.21499C5.95473 10.1014 5.79617 11.0616 5.77503 12.0957C5.77503 13.1298 5.91245 14.09 6.18728 14.9763C6.46212 15.8416 6.8638 16.5486 7.39233 17.0973C7.94199 17.646 8.62908 17.8992 9.45358 17.857C10.0244 17.8148 10.5741 17.5827 11.1026 17.1606C11.6311 16.7174 12.0539 16.0526 12.371 15.1663Z" fill="black"/>
<path d="M29.1415 5.32134C29.7969 5.38465 30.3994 5.63789 30.9491 6.08107C31.4988 6.50315 31.9533 7.0202 32.3127 7.63221C32.6932 8.22311 32.9681 8.85623 33.1372 9.53155C33.3063 10.2069 33.3486 10.8083 33.264 11.3359C33.2006 11.8846 33.042 12.4228 32.7884 12.9504C32.5558 13.4569 32.2493 13.8895 31.8687 14.2483C31.5093 14.607 31.1076 14.8497 30.6637 14.9763C30.2197 15.0819 29.7546 14.9974 29.2684 14.7231C28.9724 14.5754 28.7081 14.3327 28.4756 13.995C28.2642 13.6363 28.0633 13.2669 27.8731 12.8871C27.6828 12.4861 27.4925 12.1062 27.3023 11.7475C27.112 11.3887 26.9006 11.1143 26.668 10.9244C26.4566 10.7134 26.2029 10.629 25.9069 10.6712C25.6321 10.6923 25.315 10.9033 24.9556 11.3043C24.8499 13.1403 24.8393 14.9869 24.9239 16.844C25.0084 18.7012 25.1564 20.5478 25.3678 22.3838C25.4313 22.5737 25.3467 22.7637 25.1142 22.9536C24.8816 23.1224 24.5645 23.2702 24.1628 23.3968C23.7823 23.5023 23.3489 23.5867 22.8626 23.65C22.3764 23.6922 21.9007 23.6922 21.4356 23.65C20.9916 23.5867 20.59 23.4706 20.2306 23.3018C19.8712 23.133 19.628 22.8903 19.5012 22.5737C19.3955 22.2994 19.3004 21.7401 19.2158 20.896C19.1524 20.0518 19.0995 19.081 19.0572 17.9836C19.0361 16.8651 19.0361 15.6728 19.0572 14.4065C19.0784 13.1192 19.1207 11.9057 19.1841 10.7661C19.2686 9.60542 19.3849 8.57133 19.5329 7.66386C19.6809 6.7564 19.8606 6.10218 20.072 5.7012C20.1989 5.46906 20.4103 5.25802 20.7062 5.06809C21.0234 4.85705 21.5202 4.77264 22.1967 4.81484C22.4715 4.81484 22.7781 4.8465 23.1163 4.90981C23.4546 4.95202 23.7717 5.04699 24.0677 5.19471C24.3636 5.32134 24.6068 5.50072 24.797 5.73286C24.9873 5.965 25.0719 6.26046 25.0507 6.61922V6.87247C25.0507 6.95688 25.0402 7.0624 25.019 7.18903C25.019 7.29454 25.019 7.43172 25.019 7.60055C25.2938 7.3051 25.5898 7.0202 25.9069 6.74584C26.2452 6.45039 26.594 6.19715 26.9534 5.98611C27.3128 5.75396 27.6722 5.58513 28.0316 5.47962C28.4122 5.35299 28.7821 5.30023 29.1415 5.32134Z" fill="black"/>
<path d="M40.8084 9.56321C40.8507 9.60542 40.8824 9.95363 40.9036 10.6078C40.9458 11.2621 40.967 12.0746 40.967 13.0453C40.9881 13.995 40.9987 15.0291 40.9987 16.1476C41.0198 17.245 41.0304 18.2791 41.0304 19.2499C41.0304 20.1995 41.0304 21.0015 41.0304 21.6557C41.0515 22.3099 41.0621 22.6476 41.0621 22.6687C41.1044 22.8375 40.9987 22.9853 40.745 23.1119C40.5124 23.2174 40.1848 23.3018 39.7619 23.3651C39.3603 23.4284 38.9163 23.4601 38.43 23.4601C37.9438 23.439 37.4681 23.3862 37.003 23.3018C36.5591 23.2174 36.168 23.0908 35.8297 22.9219C35.4914 22.7531 35.28 22.5315 35.1955 22.2572C35.0898 22.0039 35.0158 21.5924 34.9735 21.0226C34.9523 20.4528 34.9523 19.788 34.9735 19.0283C34.9946 18.2685 35.0263 17.456 35.0686 16.5908C35.1109 15.7255 35.1638 14.8708 35.2272 14.0267C35.2906 13.1825 35.354 12.4017 35.4174 11.6841C35.502 10.9455 35.5654 10.3229 35.6077 9.81646C35.6077 9.77425 35.6077 9.67928 35.6077 9.53155C35.6289 9.36272 35.6923 9.19389 35.798 9.02506C35.9248 8.85623 36.1362 8.7085 36.4322 8.58188C36.7282 8.43415 37.1722 8.33919 37.7641 8.29698C38.5675 8.25477 39.1806 8.29698 39.6034 8.4236C40.0262 8.52912 40.3222 8.6663 40.4913 8.83513C40.7027 9.04617 40.8084 9.28886 40.8084 9.56321ZM40.6499 4.65656C40.6499 5.28968 40.4279 5.81728 39.9839 6.23935C39.5611 6.66143 39.022 6.87247 38.3666 6.87247C37.7535 6.87247 37.2356 6.66143 36.8128 6.23935C36.3899 5.81728 36.1785 5.28968 36.1785 4.65656C36.1785 4.04455 36.3899 3.52751 36.8128 3.10543C37.2356 2.66225 37.7535 2.44066 38.3666 2.44066C39.022 2.44066 39.5611 2.66225 39.9839 3.10543C40.4279 3.52751 40.6499 4.04455 40.6499 4.65656Z" fill="black"/>
<path d="M53.8072 9.97473C53.1095 10.1014 52.4436 10.3968 51.8094 10.8611C51.1751 11.3254 50.6889 11.8002 50.3506 12.2856C49.9067 12.8976 49.6001 13.5413 49.431 14.2166C49.2619 14.8708 49.2619 15.4617 49.431 15.9893C49.6213 16.5169 50.0018 16.9179 50.5726 17.1923C51.1646 17.4666 52.0102 17.5088 53.1095 17.3189C53.6169 17.2134 54.1455 17.0129 54.6951 16.7174C55.2448 16.422 55.6253 16.0632 55.8367 15.6411C55.9213 15.5356 56.0164 15.409 56.1221 15.2612C56.249 15.1135 56.3864 14.9869 56.5344 14.8814C56.7035 14.7548 56.8938 14.6703 57.1052 14.6281C57.3378 14.5648 57.602 14.5648 57.898 14.6281C58.4688 14.7548 58.9445 15.0291 59.325 15.4512C59.7267 15.8522 60.0015 16.3375 60.1495 16.9073C60.2975 17.456 60.3081 18.0364 60.1812 18.6484C60.0544 19.2393 59.769 19.788 59.325 20.2945C58.5217 21.1598 57.6126 21.8668 56.5978 22.4155C55.583 22.9431 54.5366 23.3124 53.4584 23.5234C52.3802 23.7133 51.302 23.7344 50.2238 23.5867C49.1667 23.4179 48.1731 23.0802 47.2429 22.5737C46.3338 22.0461 45.5305 21.3392 44.8328 20.4528C44.1563 19.5664 43.6701 18.5007 43.3741 17.2556C43.0147 15.715 43.0358 14.2166 43.4375 12.7604C43.8392 11.3043 44.5157 9.99584 45.467 8.83513C46.4395 7.65331 47.6234 6.68253 49.0187 5.9228C50.4352 5.16306 51.9679 4.71988 53.6169 4.59325C54.23 4.55105 54.8643 4.57215 55.5196 4.65656C56.1961 4.74098 56.8304 4.89926 57.4223 5.1314C58.0143 5.34244 58.5217 5.62734 58.9445 5.98611C59.3884 6.34487 59.695 6.76695 59.8641 7.25234C59.9698 7.6111 60.0015 7.99097 59.9592 8.39194C59.9381 8.77181 59.843 9.14113 59.6738 9.4999C59.5047 9.83756 59.251 10.1225 58.9128 10.3546C58.5745 10.5656 58.1517 10.6712 57.6443 10.6712C57.306 10.6712 56.9678 10.629 56.6295 10.5445C56.3124 10.439 55.9953 10.3335 55.6782 10.228C55.3611 10.1225 55.0439 10.038 54.7268 9.97473C54.4309 9.91142 54.1243 9.91142 53.8072 9.97473Z" fill="black"/>
<path d="M79.0328 19.6614C79.1596 19.7247 79.1702 19.8724 79.0645 20.1046C78.9588 20.3367 78.7791 20.6216 78.5254 20.9593C78.2717 21.2758 77.9652 21.6135 77.6058 21.9723C77.2675 22.3099 76.9187 22.6159 76.5593 22.8903C76.1999 23.1646 75.851 23.3757 75.5128 23.5234C75.1745 23.6711 74.8891 23.7028 74.6566 23.6184C74.2338 23.4706 73.7158 23.1119 73.1027 22.5421C72.5108 21.9723 71.8977 21.3286 71.2634 20.6111C70.6504 19.8935 70.0584 19.176 69.4876 18.4585C68.9379 17.7198 68.5045 17.1289 68.1874 16.6858C68.2508 17.0867 68.3037 17.5194 68.346 17.9836C68.3883 18.4479 68.4305 18.9017 68.4728 19.3448C68.5362 19.788 68.5891 20.2101 68.6314 20.6111C68.6737 20.9909 68.7265 21.3181 68.7899 21.5924C68.8745 21.9512 68.6631 22.2888 68.1557 22.6054C67.6483 22.9008 67.0352 23.1119 66.3164 23.2385C65.957 23.3018 65.5976 23.3335 65.2382 23.3335C64.9 23.3335 64.5723 23.2913 64.2552 23.2068C63.9381 23.1013 63.6527 22.9642 63.399 22.7953C63.1664 22.6054 62.9867 22.3627 62.8599 22.0672C62.6696 21.4552 62.5216 20.6216 62.4159 19.5664C62.3102 18.4901 62.2362 17.3083 62.1939 16.021C62.1728 14.7337 62.1728 13.3936 62.1939 12.0007C62.2151 10.5867 62.2573 9.24665 62.3208 7.98042C62.3842 6.69309 62.4582 5.53237 62.5428 4.49829C62.6273 3.4642 62.7119 2.6728 62.7964 2.1241C62.7964 2.03969 62.807 1.88141 62.8282 1.64927C62.8704 1.41712 62.9656 1.17443 63.1136 0.921182C63.2615 0.667937 63.4941 0.446347 63.8112 0.256412C64.1283 0.0664775 64.5829 -0.0179381 65.1748 0.0031655C65.5131 0.0031655 65.8513 0.0453733 66.1896 0.129789C66.549 0.193101 66.8661 0.309172 67.1409 0.478002C67.4158 0.646833 67.6377 0.878975 67.8069 1.17443C67.976 1.44878 68.05 1.78644 68.0289 2.18741C67.902 3.64358 67.8386 5.09975 67.8386 6.55591C67.8386 7.99097 67.8492 9.46824 67.8703 10.9877C68.3777 10.4812 68.9379 9.95363 69.551 9.40493C70.1852 8.83513 70.8089 8.24422 71.422 7.63221C72.0351 6.99909 72.5953 6.36598 73.1027 5.73286C73.6312 5.07864 74.0435 4.41387 74.3395 3.73855C74.4452 3.63303 74.646 3.61192 74.942 3.67523C75.2591 3.73855 75.6185 3.85462 76.0202 4.02345C76.4219 4.19228 76.8341 4.40332 77.2569 4.65656C77.6798 4.90981 78.0497 5.17361 78.3668 5.44796C78.7051 5.72231 78.9588 5.99666 79.1279 6.27101C79.297 6.52426 79.3393 6.7564 79.2548 6.96744C78.8742 7.83269 78.4197 8.62409 77.8912 9.34162C77.3626 10.038 76.813 10.6712 76.2422 11.241C75.6713 11.8108 75.1005 12.3278 74.5297 12.7921C73.9801 13.2564 73.5044 13.6574 73.1027 13.995C73.6312 14.5226 74.2338 15.1135 74.9103 15.7677C75.5868 16.4009 76.221 17.0023 76.813 17.5721C77.4049 18.1419 77.9123 18.6273 78.3351 19.0283C78.7579 19.4293 78.9905 19.6403 79.0328 19.6614Z" fill="black"/>
<path d="M97.1986 9.84811C97.3677 10.7134 97.3254 11.5364 97.0717 12.3173C96.8392 13.0981 96.4481 13.7945 95.8984 14.4065C95.3699 15.0186 94.7251 15.5461 93.964 15.9893C93.224 16.4114 92.4313 16.7174 91.5856 16.9073C91.0782 17.034 90.5497 17.1184 90 17.1606C89.4504 17.2028 88.8056 17.2134 88.0656 17.1923C88.0656 17.9098 88.2242 18.4374 88.5413 18.775C88.8796 19.1127 89.2707 19.2815 89.7146 19.2815C90.1586 19.2815 90.6131 19.1338 91.0782 18.8384C91.5645 18.5218 91.9662 18.0786 92.2833 17.5088C92.6215 17.1711 93.0232 16.9918 93.4883 16.9707C93.9746 16.9285 94.4291 17.0129 94.8519 17.2239C95.2747 17.4349 95.6236 17.7515 95.8984 18.1736C96.1732 18.5746 96.2895 19.0283 96.2472 19.5348C96.057 20.3156 95.6764 20.9909 95.1056 21.5607C94.5559 22.1306 93.9006 22.5948 93.1395 22.9536C92.3995 23.2913 91.5962 23.5129 90.7294 23.6184C89.8838 23.7239 89.0804 23.7028 88.3193 23.5551C87.5582 23.3862 86.8183 23.1224 86.0995 22.7637C85.4019 22.3838 84.7465 21.9301 84.1334 21.4025C83.5414 20.8538 83.0129 20.2312 82.5478 19.5348C82.0827 18.8384 81.7233 18.0575 81.4696 17.1923C81.0891 15.8416 81.0045 14.4593 81.2159 13.0453C81.4485 11.6314 81.9347 10.3335 82.6747 9.15168C83.4146 7.96987 84.3871 6.98854 85.5921 6.2077C86.8183 5.42686 88.2242 5.00478 89.8098 4.94147C90.592 4.92036 91.3848 5.00478 92.1881 5.19471C92.9915 5.38465 93.7314 5.6801 94.4079 6.08107C95.0845 6.46094 95.6658 6.96744 96.1521 7.60055C96.6595 8.23367 97.0083 8.98285 97.1986 9.84811ZM87.4314 12.5389C88.721 12.5811 89.6935 12.4755 90.3489 12.2223C91.0254 11.9479 91.4588 11.6419 91.649 11.3043C91.8605 10.9666 91.871 10.6501 91.6808 10.3546C91.5116 10.0591 91.2051 9.90087 90.7611 9.87977C90.3383 9.85866 89.8309 10.0486 89.239 10.4496C88.647 10.8294 88.0445 11.5259 87.4314 12.5389Z" fill="black"/>
<path d="M109.161 16.8124C109.33 16.538 109.573 16.3903 109.89 16.3692C110.207 16.327 110.546 16.3903 110.905 16.5591C111.264 16.7069 111.613 16.939 111.951 17.2556C112.29 17.551 112.554 17.8992 112.744 18.3002C112.977 18.7856 113.051 19.2499 112.966 19.6931C112.882 20.1151 112.723 20.5267 112.49 20.9276C112.173 21.4552 111.772 21.9301 111.285 22.3521C110.799 22.7531 110.26 23.0908 109.668 23.3651C109.076 23.6395 108.453 23.8294 107.797 23.9349C107.142 24.0193 106.486 24.0088 105.831 23.9033C105.028 23.7555 104.298 23.4706 103.643 23.0486C103.009 22.6054 102.448 22.0778 101.962 21.4658C101.497 20.8327 101.117 20.1468 100.821 19.4082C100.525 18.6695 100.313 17.8992 100.186 17.0973C100.081 16.2742 100.028 15.4406 100.028 14.5965C100.049 13.7523 100.07 12.866 100.091 11.9374C99.8164 11.7897 99.5944 11.5048 99.4253 11.0827C99.2562 10.6606 99.1505 10.2069 99.1082 9.72149C99.0659 9.215 99.0765 8.72961 99.1399 8.26532C99.2033 7.77993 99.3302 7.42117 99.5204 7.18903C99.6262 7.0202 99.7636 6.91468 99.9327 6.87247C100.017 6.85136 100.081 6.84081 100.123 6.84081H100.218C100.26 6.84081 100.303 6.84081 100.345 6.84081C100.408 6.84081 100.472 6.83026 100.535 6.80916C100.662 5.4163 100.757 4.28725 100.821 3.42199C100.905 2.53563 100.947 2.03969 100.947 1.93417C100.947 1.61761 101.053 1.35381 101.265 1.14277C101.476 0.931735 101.73 0.773457 102.026 0.667938C102.322 0.562418 102.628 0.499106 102.945 0.478002C103.284 0.456898 103.58 0.46745 103.833 0.509659C104.489 0.594073 105.112 0.826215 105.704 1.20608C106.317 1.56485 106.687 2.103 106.814 2.82053C106.856 3.2004 106.867 3.70689 106.846 4.34001C106.825 4.97312 106.782 5.69065 106.719 6.4926C108.305 6.40818 109.89 6.24991 111.476 6.01776C111.772 5.91224 112.004 5.97555 112.173 6.2077C112.343 6.41874 112.459 6.72474 112.522 7.12571C112.586 7.52669 112.607 7.98042 112.586 8.48691C112.564 8.9934 112.501 9.48935 112.395 9.97473C112.29 10.439 112.152 10.8611 111.983 11.241C111.835 11.5997 111.666 11.8319 111.476 11.9374C111.074 12.1695 110.662 12.3384 110.239 12.4439C109.816 12.5283 109.372 12.5811 108.907 12.6022C108.463 12.6233 108.009 12.6233 107.543 12.6022C107.078 12.56 106.613 12.5177 106.148 12.4755C106.106 12.8554 106.064 13.2564 106.021 13.6785C105.979 14.0794 105.947 14.5015 105.926 14.9447C105.926 15.3668 105.958 15.7994 106.021 16.2426C106.085 16.6647 106.201 17.0762 106.37 17.4772C106.645 18.1103 107.047 18.3635 107.575 18.2369C108.125 18.0892 108.653 17.6143 109.161 16.8124Z" fill="black"/>
</svg>
