<svg width="445" height="445" viewBox="0 0 445 445" fill="none" xmlns="http://www.w3.org/2000/svg">
<path d="M442.251 187.719C433.499 132.416 404.219 82.4467 360.252 47.7793C316.286 13.1119 260.866 -3.70447 205.049 0.685292C149.232 5.07505 97.1225 30.3482 59.1158 71.4624C21.1091 112.577 0 166.509 0 222.5C0 278.491 21.1091 332.423 59.1158 373.538C97.1225 414.652 149.232 439.925 205.049 444.315C260.866 448.704 316.286 431.888 360.252 397.221C404.219 362.553 433.499 312.584 442.251 257.281C445.916 234.239 445.916 210.761 442.251 187.719Z" fill="black"/>
<path d="M90.0767 155.361L62.4567 141.281C53.8893 158.074 48.0303 176.117 45.0967 194.741L76.7067 199.741C78.7203 184.319 83.2362 169.328 90.0767 155.361Z" fill="#F14754"/>
<path d="M120.267 170.76L90.0365 155.36C83.2089 169.334 78.7065 184.327 76.7065 199.75L109.087 204.88C110.971 192.984 114.745 181.465 120.267 170.76Z" fill="black"/>
<path d="M150.346 186.07L120.346 170.76C114.811 181.463 111.023 192.982 109.126 204.88L142.516 210.15C143.839 201.761 146.482 193.634 150.346 186.07Z" fill="#F14754"/>
<path d="M150.347 186.07C146.48 193.64 143.837 201.774 142.517 210.17L222.517 222.85L150.347 186.07Z" fill="black"/>
<path d="M117.167 117.49L95.5265 95.8503C82.1896 109.166 71.03 124.497 62.4565 141.28L90.0765 155.36C96.9536 141.328 106.107 128.531 117.167 117.49Z" fill="#00D2DC"/>
<path d="M140.907 142.64L141.627 141.94L117.167 117.49C106.108 128.531 96.9537 141.328 90.0767 155.36L120.267 170.76C125.655 160.379 132.617 150.893 140.907 142.64Z" fill="white"/>
<path d="M165.267 165.57L141.637 141.94L140.917 142.64C132.624 150.892 125.658 160.378 120.267 170.76L150.267 186.07C154.156 178.49 159.219 171.571 165.267 165.57Z" fill="#00D2DC"/>
<path d="M165.266 165.57C159.25 171.578 154.219 178.496 150.356 186.07L222.536 222.85L165.266 165.57Z" fill="white"/>
<path d="M76.815 200L45.205 195C42.265 213.621 42.265 232.589 45.205 251.21L78.0149 246.01C75.2133 230.83 74.8084 215.305 76.815 200Z" fill="#00D2DC"/>
<path d="M109.087 204.88L76.7066 199.75C74.7011 215.052 75.106 230.574 77.9066 245.75L109.087 240.81C107.187 228.909 107.187 216.782 109.087 204.88Z" fill="white"/>
<path d="M142.517 210.15L109.087 204.86C107.187 216.762 107.187 228.889 109.087 240.79L142.517 235.5C141.196 227.102 141.196 218.549 142.517 210.15Z" fill="#00D2DC"/>
<path d="M142.517 210.15C141.197 218.549 141.197 227.102 142.517 235.5L222.517 222.83L142.517 210.15Z" fill="white"/>
<path d="M77.9067 245.75L45.0967 250.95C48.0303 269.574 53.8893 287.617 62.4567 304.41L92.9167 288.88C85.7424 275.354 80.6804 260.809 77.9067 245.75Z" fill="#F14754"/>
<path d="M109.087 240.81L77.9067 245.75C80.6774 260.808 85.7359 275.353 92.9067 288.88L120.297 274.88C114.77 264.193 110.986 252.691 109.087 240.81Z" fill="black"/>
<path d="M142.517 235.521L109.087 240.811C110.971 252.707 114.746 264.226 120.267 274.931L150.267 259.621C146.428 252.046 143.812 243.912 142.517 235.521Z" fill="#F14754"/>
<path d="M142.517 235.52C143.837 243.917 146.48 252.051 150.347 259.62L222.527 222.85L142.517 235.52Z" fill="black"/>
<path d="M117.167 117.491C128.209 106.431 141.006 97.2738 155.037 90.3905L140.967 62.7705C124.178 71.3439 108.843 82.5073 95.5269 95.8505L117.167 117.491Z" fill="#F14754"/>
<path d="M170.727 121.15L155.037 90.3904C141.005 97.2736 128.209 106.431 117.167 117.49L141.627 141.94C150.165 133.514 159.987 126.496 170.727 121.15Z" fill="black"/>
<path d="M185.746 150.66L170.746 121.18C160.009 126.517 150.187 133.524 141.646 141.94L165.266 165.57C171.27 159.558 178.181 154.527 185.746 150.66Z" fill="#F14754"/>
<path d="M185.747 150.66C178.181 154.527 171.27 159.558 165.267 165.57L222.537 222.85L185.747 150.66Z" fill="black"/>
<path d="M245.437 78.2304L250.627 45.4104C232.008 42.4804 213.046 42.4804 194.427 45.4104L199.427 77.0204C214.733 75.0231 230.257 75.4313 245.437 78.2304Z" fill="#F14754"/>
<path d="M240.267 111.01L245.467 78.2304C230.29 75.4324 214.769 75.0242 199.467 77.0204L204.787 110.57C216.564 108.862 228.536 109.011 240.267 111.01Z" fill="black"/>
<path d="M235.197 142.84L240.197 111.01C228.462 109.01 216.487 108.861 204.707 110.57L209.817 142.84C218.224 141.507 226.789 141.507 235.197 142.84Z" fill="#F14754"/>
<path d="M235.196 142.84C226.802 141.511 218.251 141.511 209.856 142.84L222.526 222.84L235.196 142.84Z" fill="black"/>
<path d="M199.427 77.0204L194.427 45.4104C175.804 48.3457 157.761 54.2045 140.967 62.7704L155.037 90.3904C169.01 83.5536 184.002 79.0378 199.427 77.0204Z" fill="#00D2DC"/>
<path d="M204.747 110.571L199.427 77.0205C184.002 79.0379 169.009 83.5537 155.037 90.3905L170.727 121.151C181.436 115.847 192.919 112.276 204.747 110.571Z" fill="white"/>
<path d="M209.857 142.84L204.747 110.57C192.924 112.287 181.448 115.869 170.747 121.18L185.747 150.66C193.322 146.803 201.459 144.164 209.857 142.84Z" fill="#00D2DC"/>
<path d="M209.857 142.84C201.459 144.164 193.322 146.803 185.747 150.66L222.527 222.85L209.857 142.84Z" fill="white"/>
<path d="M288.567 93.2404L304.087 62.7704C287.292 54.2045 269.25 48.3457 250.627 45.4104L245.437 78.2304C260.496 81.0011 275.041 86.0632 288.567 93.2404Z" fill="#00D2DC"/>
<path d="M273.747 122.32L288.567 93.2405C275.041 86.0668 260.495 81.0081 245.437 78.2405L240.267 111.01C251.951 113 263.249 116.817 273.747 122.32Z" fill="white"/>
<path d="M259.267 150.66L273.707 122.32C263.222 116.821 251.937 113.004 240.267 111.01L235.267 142.84C243.627 144.175 251.725 146.814 259.267 150.66Z" fill="#00D2DC"/>
<path d="M259.267 150.66C251.691 146.803 243.555 144.164 235.157 142.84L222.487 222.84L259.267 150.66Z" fill="white"/>
<path d="M325.097 120.281L349.527 95.8505C336.212 82.505 320.877 71.3414 304.087 62.7705L288.567 93.2405C302.023 100.384 314.335 109.498 325.097 120.281Z" fill="#F14754"/>
<path d="M279.807 165.57L302.017 143.35C301.787 143.12 301.557 142.87 301.317 142.64C293.205 134.514 283.91 127.663 273.747 122.32L259.267 150.66C266.853 154.522 273.784 159.554 279.807 165.57Z" fill="#F14754"/>
<path d="M301.317 142.641C301.557 142.871 301.787 143.121 302.017 143.351L325.097 120.281C314.332 109.512 302.02 100.412 288.567 93.2805L273.747 122.361C283.907 127.691 293.202 134.529 301.317 142.641Z" fill="black"/>
<path d="M279.807 165.57C273.785 159.554 266.853 154.522 259.267 150.66L222.527 222.85L279.807 165.57Z" fill="black"/>
<path d="M92.9165 288.88L62.4565 304.41C71.0298 321.197 82.1894 336.531 95.5265 349.85L119.957 325.41C109.174 314.649 100.06 302.336 92.9165 288.88Z" fill="#00D2DC"/>
<path d="M140.906 303.05C132.617 294.798 125.655 285.312 120.266 274.93L92.8765 288.93C100.008 302.383 109.108 314.696 119.876 325.46L141.546 303.8L140.906 303.05Z" fill="white"/>
<path d="M150.347 259.62L120.347 274.93C125.723 285.31 132.672 294.795 140.947 303.05L141.667 303.75L165.267 280.15C159.242 274.136 154.207 267.207 150.347 259.62Z" fill="#00D2DC"/>
<path d="M150.347 259.62C154.207 267.207 159.242 274.136 165.267 280.15L222.537 222.88L150.347 259.62Z" fill="white"/>
<path d="M352.137 156.81L382.607 141.28C374.03 124.497 362.867 109.166 349.527 95.8503L325.097 120.28C335.879 131.042 344.993 143.355 352.137 156.81Z" fill="#00D2DC"/>
<path d="M322.497 171.911L352.137 156.811C345.006 143.357 335.905 131.045 325.137 120.281L302.017 143.351C310.287 151.747 317.197 161.383 322.497 171.911Z" fill="white"/>
<path d="M294.707 186.07L322.497 171.91C317.197 161.383 310.287 151.747 302.017 143.35L279.807 165.57C285.817 171.581 290.845 178.499 294.707 186.07Z" fill="#00D2DC"/>
<path d="M222.527 222.85L294.707 186.07C290.845 178.499 285.817 171.581 279.807 165.57L222.527 222.85Z" fill="white"/>
<path d="M302.537 235.52C303.857 227.122 303.857 218.569 302.537 210.17L222.537 222.85L302.537 235.52Z" fill="white"/>
<g filter="url(#filter0_d_149_354)">
<path d="M302.537 235.52L333.207 240.38C335.017 228.764 335.017 216.937 333.207 205.32L302.537 210.15C303.859 218.555 303.859 227.115 302.537 235.52Z" fill="#00D2DC"/>
</g>
<path d="M367.147 199.94L333.207 205.32C335.016 216.937 335.016 228.764 333.207 240.38L368.347 245.94C370.352 230.639 369.947 215.117 367.147 199.94Z" fill="white"/>
<path d="M368.346 245.94L399.956 250.94C402.896 232.319 402.896 213.352 399.956 194.73L367.146 199.93C369.948 215.11 370.353 230.635 368.346 245.94Z" fill="#00D2DC"/>
<path d="M368.347 245.94C366.333 261.364 361.82 276.357 354.987 290.33L382.607 304.41C391.171 287.616 397.027 269.573 399.957 250.95L368.347 245.94Z" fill="#F14754"/>
<path d="M322.497 273.78L354.987 290.33C361.82 276.357 366.333 261.364 368.347 245.94L333.207 240.38C331.4 252.004 327.787 263.274 322.497 273.78Z" fill="black"/>
<path d="M294.707 259.621L322.497 273.781C327.787 263.274 331.4 252.004 333.207 240.381L302.537 235.521C301.216 243.917 298.573 252.051 294.707 259.621Z" fill="#F14754"/>
<path d="M294.707 259.62C298.573 252.051 301.216 243.917 302.537 235.52L222.537 222.85L294.707 259.62Z" fill="black"/>
<path d="M327.887 328.2L349.527 349.85C362.867 336.531 374.03 321.197 382.607 304.41L354.987 290.33C348.106 304.363 338.949 317.16 327.887 328.2Z" fill="#00D2DC"/>
<path d="M302.017 302.34L327.887 328.2C338.949 317.16 348.106 304.363 354.987 290.33L322.497 273.78C317.197 284.308 310.287 293.944 302.017 302.34Z" fill="white"/>
<path d="M279.807 280.15L302.017 302.37C310.287 293.974 317.197 284.338 322.497 273.81L294.707 259.65C290.847 267.224 285.819 274.142 279.807 280.15Z" fill="#00D2DC"/>
<path d="M279.807 280.15C285.819 274.142 290.847 267.224 294.707 259.65L222.527 222.85L279.807 280.15Z" fill="white"/>
<path d="M302.537 210.15C301.216 201.754 298.573 193.62 294.707 186.05L222.527 222.85L302.537 210.15Z" fill="black"/>
<path d="M294.707 186.07C298.573 193.64 301.216 201.774 302.537 210.17L333.207 205.32C331.402 193.693 327.788 182.42 322.497 171.91L294.707 186.07Z" fill="#F14754"/>
<path d="M333.207 205.32L367.147 199.94C364.376 184.883 359.318 170.338 352.147 156.81L322.507 171.91C327.795 182.42 331.405 193.694 333.207 205.32Z" fill="black"/>
<path d="M367.147 199.941L399.957 194.741C397.027 176.118 391.171 158.075 382.607 141.281L352.137 156.811C359.311 170.337 364.373 184.882 367.147 199.941Z" fill="#F14754"/>
<path d="M199.627 367.46L194.427 400.28C213.045 403.22 232.009 403.22 250.627 400.28L245.627 368.67C230.324 370.673 214.803 370.265 199.627 367.46Z" fill="#F14754"/>
<path d="M204.746 335.15L199.626 367.49C214.802 370.295 230.324 370.703 245.626 368.7L240.236 334.7C228.503 336.705 216.527 336.856 204.746 335.15Z" fill="black"/>
<path d="M209.857 302.85L204.747 335.15C216.527 336.86 228.502 336.711 240.237 334.71L235.237 302.88C226.828 304.204 218.262 304.194 209.857 302.85Z" fill="#F14754"/>
<path d="M209.856 302.85C218.251 304.18 226.802 304.18 235.196 302.85L222.526 222.85L209.856 302.85Z" fill="black"/>
<path d="M327.887 328.2C316.847 339.263 304.05 348.421 290.017 355.3L304.087 382.92C320.875 374.35 336.209 363.19 349.527 349.85L327.887 328.2Z" fill="#F14754"/>
<path d="M301.317 303.05C293.208 311.18 283.912 318.031 273.747 323.37L290.017 355.3C304.05 348.421 316.847 339.263 327.887 328.2L302.017 302.34C301.787 302.57 301.557 302.82 301.317 303.05Z" fill="black"/>
<path d="M279.807 280.15C273.782 286.156 266.851 291.177 259.267 295.03L273.707 323.37C283.872 318.031 293.168 311.18 301.277 303.05C301.517 302.82 301.747 302.57 301.977 302.34L279.807 280.15Z" fill="#F14754"/>
<path d="M259.267 295.03C266.851 291.177 273.782 286.156 279.807 280.15L222.527 222.85L259.267 295.03Z" fill="black"/>
<path d="M119.957 325.41L95.5269 349.85C108.846 363.188 124.18 374.347 140.967 382.92L156.487 352.45C143.029 345.311 130.716 336.196 119.957 325.41Z" fill="#F14754"/>
<path d="M141.627 303.75L119.957 325.41C130.718 336.182 143.031 345.283 156.487 352.41L170.727 324.47C159.992 319.146 150.17 312.152 141.627 303.75Z" fill="black"/>
<path d="M165.266 280.15L141.626 303.75C150.167 312.166 159.989 319.174 170.726 324.51L185.726 295.03C178.17 291.171 171.266 286.15 165.266 280.15Z" fill="#F14754"/>
<path d="M165.267 280.15C171.273 286.163 178.188 291.195 185.757 295.06L222.537 222.88L165.267 280.15Z" fill="black"/>
<path d="M156.487 352.45L140.967 382.92C157.761 391.486 175.804 397.345 194.427 400.28L199.627 367.46C184.563 364.694 170.014 359.632 156.487 352.45Z" fill="#00D2DC"/>
<path d="M170.727 324.51L156.487 352.45C170.015 359.628 184.564 364.687 199.627 367.45L204.747 335.15C192.915 333.426 181.432 329.834 170.727 324.51Z" fill="white"/>
<path d="M185.747 295.03L170.747 324.51C181.448 329.822 192.924 333.403 204.747 335.12L209.857 302.85C201.459 301.527 193.322 298.888 185.747 295.03Z" fill="#00D2DC"/>
<path d="M185.747 295.03C193.322 298.888 201.459 301.527 209.857 302.85L222.527 222.85L185.747 295.03Z" fill="white"/>
<path d="M245.626 368.67L250.626 400.28C269.249 397.345 287.292 391.486 304.086 382.92L290.016 355.3C276.044 362.137 261.051 366.653 245.626 368.67Z" fill="#00D2DC"/>
<path d="M240.267 334.68L245.657 368.68C261.081 366.663 276.074 362.147 290.047 355.31L273.777 323.38C263.269 328.883 251.961 332.697 240.267 334.68Z" fill="white"/>
<path d="M235.197 302.85L240.197 334.68C251.891 332.694 263.2 328.877 273.707 323.37L259.267 295.03C251.704 298.884 243.581 301.523 235.197 302.85Z" fill="#00D2DC"/>
<path d="M235.197 302.85C243.581 301.523 251.704 298.884 259.267 295.03L222.527 222.85L235.197 302.85Z" fill="white"/>
<path d="M222.527 264.85C245.723 264.85 264.527 246.046 264.527 222.85C264.527 199.654 245.723 180.85 222.527 180.85C199.331 180.85 180.527 199.654 180.527 222.85C180.527 246.046 199.331 264.85 222.527 264.85Z" fill="#00D2DC"/>
<path d="M222.527 242.85C233.573 242.85 242.527 233.896 242.527 222.85C242.527 211.805 233.573 202.85 222.527 202.85C211.481 202.85 202.527 211.805 202.527 222.85C202.527 233.896 211.481 242.85 222.527 242.85Z" fill="#F14754"/>
<path d="M242.266 219.72C242.606 221.793 242.606 223.908 242.266 225.98C241.945 228.054 241.293 230.063 240.336 231.93C238.416 235.691 235.357 238.75 231.596 240.67C229.713 241.632 227.687 242.284 225.596 242.6C223.524 242.94 221.409 242.94 219.336 242.6C217.263 242.279 215.254 241.627 213.386 240.67C209.626 238.75 206.567 235.691 204.646 231.93C203.69 230.063 203.038 228.054 202.716 225.98C202.376 223.908 202.376 221.793 202.716 219.72C203.038 217.647 203.69 215.638 204.646 213.77C206.567 210.01 209.626 206.951 213.386 205.03C215.254 204.074 217.263 203.422 219.336 203.1C221.409 202.76 223.524 202.76 225.596 203.1C227.687 203.417 229.713 204.069 231.596 205.03C235.357 206.951 238.416 210.01 240.336 213.77C241.293 215.638 241.945 217.647 242.266 219.72Z" stroke="black" stroke-width="2" stroke-miterlimit="10"/>
<path d="M401.316 194.53C394.191 149.508 370.353 108.827 334.559 80.6032C298.764 52.3798 253.645 38.6893 208.202 42.263C162.759 45.8366 120.334 66.4118 89.3917 99.8834C58.4489 133.355 41.2632 177.262 41.2632 222.845C41.2632 268.428 58.4489 312.336 89.3917 345.807C120.334 379.279 162.759 399.854 208.202 403.428C253.645 407.002 298.764 393.311 334.559 365.088C370.353 336.864 394.191 296.183 401.316 251.16C404.288 232.401 404.288 213.29 401.316 194.53ZM264.016 229.42C262.363 239.859 256.835 249.291 248.536 255.834C240.236 262.377 229.774 265.55 219.238 264.721C208.702 263.892 198.866 259.121 191.692 251.36C184.518 243.599 180.534 233.419 180.534 222.85C180.534 212.282 184.518 202.102 191.692 194.341C198.866 186.58 208.702 181.809 219.238 180.98C229.774 180.151 240.236 183.324 248.536 189.867C256.835 196.41 262.363 205.842 264.016 216.28C264.711 220.633 264.711 225.068 264.016 229.42Z" stroke="black" stroke-width="2" stroke-miterlimit="10"/>
<path d="M242.266 219.72C242.606 221.793 242.606 223.908 242.266 225.98C241.945 228.054 241.293 230.063 240.336 231.93C238.416 235.691 235.357 238.75 231.596 240.67C229.713 241.632 227.687 242.284 225.596 242.6C223.524 242.94 221.409 242.94 219.336 242.6C217.263 242.279 215.254 241.627 213.386 240.67C209.626 238.75 206.567 235.691 204.646 231.93C203.69 230.063 203.038 228.054 202.716 225.98C202.376 223.908 202.376 221.793 202.716 219.72C203.038 217.647 203.69 215.638 204.646 213.77C206.567 210.01 209.626 206.951 213.386 205.03C215.254 204.074 217.263 203.422 219.336 203.1C221.409 202.76 223.524 202.76 225.596 203.1C227.687 203.417 229.713 204.069 231.596 205.03C235.357 206.951 238.416 210.01 240.336 213.77C241.293 215.638 241.945 217.647 242.266 219.72Z" stroke="black" stroke-width="2" stroke-miterlimit="10"/>
<path d="M367.147 199.95C364.381 184.888 359.322 170.339 352.147 156.81C337.753 129.764 315.615 107.63 288.567 93.2403C275.038 86.065 260.489 81.0063 245.427 78.2403C230.25 75.4445 214.729 75.0396 199.427 77.0403C183.998 79.0495 169.002 83.5621 155.027 90.4003C126.769 104.284 103.911 127.143 90.0265 155.4C83.1883 169.375 78.6757 184.372 76.6665 199.8C74.6658 215.102 75.0707 230.623 77.8665 245.8C80.6325 260.862 85.6913 275.411 92.8665 288.94C107.258 315.985 129.392 338.119 156.437 352.51C169.965 359.686 184.514 364.744 199.577 367.51C214.754 370.306 230.274 370.711 245.577 368.71C261.005 366.701 276.002 362.189 289.977 355.35C318.234 341.466 341.092 318.608 354.977 290.35C361.815 276.375 366.327 261.378 368.337 245.95C370.341 230.649 369.939 215.128 367.147 199.95ZM264.017 229.42C262.363 239.859 256.835 249.29 248.536 255.833C240.236 262.377 229.775 265.55 219.238 264.721C208.702 263.892 198.866 259.121 191.692 251.36C184.518 243.599 180.534 233.419 180.534 222.85C180.534 212.282 184.518 202.101 191.692 194.341C198.866 186.58 208.702 181.809 219.238 180.98C229.775 180.151 240.236 183.324 248.536 189.867C256.835 196.41 262.363 205.842 264.017 216.28C264.711 220.633 264.711 225.068 264.017 229.42Z" stroke="black" stroke-width="2" stroke-miterlimit="10"/>
<path d="M242.266 219.72C242.606 221.793 242.606 223.908 242.266 225.98C241.945 228.054 241.293 230.063 240.336 231.93C238.416 235.691 235.357 238.75 231.596 240.67C229.713 241.632 227.687 242.284 225.596 242.6C223.524 242.94 221.409 242.94 219.336 242.6C217.263 242.279 215.254 241.627 213.386 240.67C209.626 238.75 206.567 235.691 204.646 231.93C203.69 230.063 203.038 228.054 202.716 225.98C202.376 223.908 202.376 221.793 202.716 219.72C203.038 217.647 203.69 215.638 204.646 213.77C206.567 210.01 209.626 206.951 213.386 205.03C215.254 204.074 217.263 203.422 219.336 203.1C221.409 202.76 223.524 202.76 225.596 203.1C227.687 203.417 229.713 204.069 231.596 205.03C235.357 206.951 238.416 210.01 240.336 213.77C241.293 215.638 241.945 217.647 242.266 219.72Z" stroke="black" stroke-width="2" stroke-miterlimit="10"/>
<path d="M333.206 205.32C329.571 181.894 318.659 160.204 302.016 143.32C301.796 143.08 301.556 142.84 301.316 142.6C280.193 121.402 251.537 109.428 221.611 109.297C191.685 109.166 162.924 120.888 141.616 141.9L140.906 142.6C130.357 153.125 121.987 165.627 116.277 179.39C110.566 193.154 107.627 207.909 107.627 222.81C107.627 237.712 110.566 252.467 116.277 266.23C121.987 279.994 130.357 292.496 140.906 303.02L141.616 303.72C162.932 324.719 191.69 336.431 221.611 336.3C251.532 336.168 280.186 324.205 301.316 303.02C301.556 302.78 301.796 302.54 302.016 302.3C314.426 289.689 323.711 274.347 329.127 257.503C334.543 240.659 335.94 222.781 333.206 205.3V205.32ZM264.016 229.42C262.363 239.859 256.835 249.291 248.536 255.834C240.236 262.377 229.774 265.55 219.238 264.721C208.702 263.892 198.866 259.121 191.692 251.36C184.518 243.599 180.533 233.419 180.533 222.85C180.533 212.282 184.518 202.102 191.692 194.341C198.866 186.58 208.702 181.809 219.238 180.98C229.774 180.151 240.236 183.324 248.536 189.867C256.835 196.41 262.363 205.842 264.016 216.28C264.711 220.633 264.711 225.068 264.016 229.42Z" stroke="black" stroke-width="2" stroke-miterlimit="10"/>
<path d="M242.266 219.72C242.606 221.793 242.606 223.908 242.266 225.98C241.945 228.054 241.293 230.063 240.336 231.93C238.416 235.691 235.357 238.75 231.596 240.67C229.713 241.632 227.687 242.284 225.596 242.6C223.524 242.94 221.409 242.94 219.336 242.6C217.263 242.279 215.254 241.627 213.386 240.67C209.626 238.75 206.567 235.691 204.646 231.93C203.69 230.063 203.038 228.054 202.716 225.98C202.376 223.908 202.376 221.793 202.716 219.72C203.038 217.647 203.69 215.638 204.646 213.77C206.567 210.01 209.626 206.951 213.386 205.03C215.254 204.074 217.263 203.422 219.336 203.1C221.409 202.76 223.524 202.76 225.596 203.1C227.687 203.417 229.713 204.069 231.596 205.03C235.357 206.951 238.416 210.01 240.336 213.77C241.293 215.638 241.945 217.647 242.266 219.72Z" stroke="black" stroke-width="2" stroke-miterlimit="10"/>
<path d="M302.547 210.151C299.873 193.25 291.916 177.629 279.817 165.53C267.718 153.431 252.097 145.474 235.197 142.801C226.802 141.471 218.251 141.471 209.857 142.801C192.956 145.474 177.336 153.431 165.236 165.53C153.137 177.629 145.18 193.25 142.507 210.151C141.177 218.545 141.177 227.096 142.507 235.491C145.18 252.391 153.137 268.012 165.236 280.111C177.336 292.21 192.956 300.167 209.857 302.841C218.251 304.17 226.802 304.17 235.197 302.841C252.097 300.167 267.718 292.21 279.817 280.111C291.916 268.012 299.873 252.391 302.547 235.491C303.876 227.096 303.876 218.545 302.547 210.151ZM259.957 241.891C255.159 251.308 246.988 258.57 237.073 262.229C227.158 265.888 216.228 265.674 206.464 261.63C196.699 257.587 188.818 250.011 184.393 240.413C179.967 230.816 179.322 219.903 182.587 209.852C185.852 199.8 192.786 191.349 202.006 186.183C211.227 181.018 222.056 179.519 232.332 181.985C242.609 184.451 251.579 190.701 257.451 199.487C263.324 208.274 265.668 218.952 264.017 229.391C263.329 233.754 261.959 237.983 259.957 241.921V241.891Z" stroke="black" stroke-width="2" stroke-miterlimit="10"/>
<path d="M94.1865 351.19L95.5265 349.85L119.957 325.42L141.617 303.76L165.247 280.13L192.827 252.55" stroke="black" stroke-width="2" stroke-miterlimit="10"/>
<path d="M140.126 384.571L140.956 382.941L156.486 352.461L170.716 324.531L185.746 295.041L203.456 260.281" stroke="black" stroke-width="2" stroke-miterlimit="10"/>
<path d="M194.136 402.12L194.426 400.3L199.626 367.47L204.746 335.13L209.856 302.87L215.956 264.34" stroke="black" stroke-width="2" stroke-miterlimit="10"/>
<path d="M250.916 402.12L250.626 400.3L245.616 368.67L240.236 334.69L235.196 302.87L229.096 264.34" stroke="black" stroke-width="2" stroke-miterlimit="10"/>
<path d="M304.926 384.571L304.096 382.941L290.016 355.311L273.746 323.371L259.306 295.041L241.596 260.281" stroke="black" stroke-width="2" stroke-miterlimit="10"/>
<path d="M350.867 351.19L349.527 349.85L327.887 328.21L302.017 302.34L279.807 280.13L252.227 252.55" stroke="black" stroke-width="2" stroke-miterlimit="10"/>
<path d="M384.247 305.25L382.617 304.42L354.987 290.34L322.497 273.79L294.717 259.63L259.957 241.92" stroke="black" stroke-width="2" stroke-miterlimit="10"/>
<path d="M401.796 251.24L399.976 250.95L368.346 245.94L333.206 240.38L302.546 235.52L264.016 229.42" stroke="black" stroke-width="2" stroke-miterlimit="10"/>
<path d="M401.796 194.46L399.976 194.75L367.146 199.95L333.206 205.32L302.546 210.18L264.016 216.28" stroke="black" stroke-width="2" stroke-miterlimit="10"/>
<path d="M384.247 140.45L382.617 141.28L352.137 156.81L322.497 171.91L294.717 186.07L259.957 203.78" stroke="black" stroke-width="2" stroke-miterlimit="10"/>
<path d="M350.867 94.5105L349.527 95.8505L325.097 120.28L302.017 143.361L279.807 165.57L252.227 193.15" stroke="black" stroke-width="2" stroke-miterlimit="10"/>
<path d="M304.926 61.1304L304.096 62.7604L288.566 93.2404L273.746 122.33L259.306 150.66L241.596 185.42" stroke="black" stroke-width="2" stroke-miterlimit="10"/>
<path d="M250.916 43.5803L250.626 45.4003L245.426 78.2303L240.236 111.01L235.196 142.83L229.096 181.36" stroke="black" stroke-width="2" stroke-miterlimit="10"/>
<path d="M194.136 43.5803L194.426 45.4003L199.436 77.0303L204.746 110.57L209.856 142.83L215.956 181.36" stroke="black" stroke-width="2" stroke-miterlimit="10"/>
<path d="M140.126 61.1304L140.956 62.7604L155.036 90.3904L170.716 121.17L185.746 150.66L203.456 185.42" stroke="black" stroke-width="2" stroke-miterlimit="10"/>
<path d="M94.1865 94.5105L95.5265 95.8505L117.167 117.49L141.617 141.94L165.247 165.57L192.827 193.15" stroke="black" stroke-width="2" stroke-miterlimit="10"/>
<path d="M60.8064 140.45L62.4364 141.28L90.0664 155.36L120.306 170.77L150.336 186.07L185.096 203.78" stroke="black" stroke-width="2" stroke-miterlimit="10"/>
<path d="M43.2563 194.46L45.0763 194.75L76.7063 199.76L109.086 204.89L142.506 210.18L181.036 216.28" stroke="black" stroke-width="2" stroke-miterlimit="10"/>
<path d="M43.2563 251.24L45.0763 250.95L77.9063 245.75L109.086 240.81L142.506 235.52L181.036 229.42" stroke="black" stroke-width="2" stroke-miterlimit="10"/>
<path d="M60.8064 305.25L62.4364 304.42L92.9164 288.89L120.306 274.93L150.336 259.63L185.096 241.92" stroke="black" stroke-width="2" stroke-miterlimit="10"/>
<path d="M242.266 225.98C241.945 228.054 241.293 230.063 240.336 231.93C238.416 235.691 235.357 238.75 231.596 240.67C229.713 241.632 227.687 242.284 225.596 242.6C223.524 242.94 221.409 242.94 219.336 242.6C217.263 242.279 215.254 241.627 213.386 240.67C209.626 238.75 206.567 235.691 204.646 231.93C203.69 230.063 203.038 228.054 202.716 225.98C202.376 223.908 202.376 221.793 202.716 219.72C203.038 217.647 203.69 215.638 204.646 213.77C206.567 210.01 209.626 206.951 213.386 205.03C215.254 204.074 217.263 203.422 219.336 203.1C221.409 202.76 223.524 202.76 225.596 203.1C227.687 203.417 229.713 204.069 231.596 205.03C235.357 206.951 238.416 210.01 240.336 213.77C241.293 215.638 241.945 217.647 242.266 219.72C242.606 221.793 242.606 223.908 242.266 225.98Z" stroke="black" stroke-width="2" stroke-miterlimit="10"/>
<path d="M242.266 225.98C241.945 228.054 241.293 230.063 240.336 231.93C238.416 235.691 235.357 238.75 231.596 240.67C229.713 241.632 227.687 242.284 225.596 242.6C223.524 242.94 221.409 242.94 219.336 242.6C217.263 242.279 215.254 241.627 213.386 240.67C209.626 238.75 206.567 235.691 204.646 231.93C203.69 230.063 203.038 228.054 202.716 225.98C202.376 223.908 202.376 221.793 202.716 219.72C203.038 217.647 203.69 215.638 204.646 213.77C206.567 210.01 209.626 206.951 213.386 205.03C215.254 204.074 217.263 203.422 219.336 203.1C221.409 202.76 223.524 202.76 225.596 203.1C227.687 203.417 229.713 204.069 231.596 205.03C235.357 206.951 238.416 210.01 240.336 213.77C241.293 215.638 241.945 217.647 242.266 219.72C242.606 221.793 242.606 223.908 242.266 225.98Z" stroke="black" stroke-width="2" stroke-miterlimit="10"/>
<path d="M207.844 34.1104C207.879 32.7393 208.173 31.4868 208.727 30.353C209.263 29.0786 210.529 27.7295 212.524 26.3057C214.255 25.0664 215.376 24.1787 215.886 23.6426C216.668 22.8076 217.059 21.8936 217.059 20.9004C217.059 20.0918 216.835 19.4194 216.387 18.8833C215.938 18.3472 215.297 18.0791 214.462 18.0791C213.319 18.0791 212.542 18.5054 212.128 19.3579C211.891 19.8501 211.75 20.6323 211.707 21.7046H208.055C208.116 20.0786 208.411 18.7646 208.938 17.7627C209.94 15.8555 211.72 14.9019 214.277 14.9019C216.299 14.9019 217.907 15.4644 219.103 16.5894C220.298 17.7056 220.896 19.1865 220.896 21.0322C220.896 22.4473 220.474 23.7041 219.63 24.8027C219.076 25.5322 218.167 26.3452 216.901 27.2417L215.398 28.3096C214.458 28.9775 213.812 29.4609 213.46 29.7598C213.117 30.0586 212.827 30.4058 212.59 30.8013H220.935V34.1104H207.844ZM226.709 24.7368C226.709 26.9341 226.89 28.6172 227.25 29.7861C227.61 30.9463 228.349 31.5264 229.465 31.5264C230.581 31.5264 231.311 30.9463 231.653 29.7861C232.005 28.6172 232.181 26.9341 232.181 24.7368C232.181 22.4341 232.005 20.729 231.653 19.6216C231.311 18.5142 230.581 17.9604 229.465 17.9604C228.349 17.9604 227.61 18.5142 227.25 19.6216C226.89 20.729 226.709 22.4341 226.709 24.7368ZM229.465 14.8623C231.899 14.8623 233.604 15.7192 234.58 17.4331C235.564 19.147 236.057 21.5815 236.057 24.7368C236.057 27.8921 235.564 30.3223 234.58 32.0273C233.604 33.7324 231.899 34.585 229.465 34.585C227.03 34.585 225.321 33.7324 224.336 32.0273C223.361 30.3223 222.873 27.8921 222.873 24.7368C222.873 21.5815 223.361 19.147 224.336 17.4331C225.321 15.7192 227.03 14.8623 229.465 14.8623Z" fill="white"/>
<path d="M277.019 29.9268V27.3691C278.205 27.3164 279.036 27.2373 279.51 27.1318C280.266 26.9648 280.881 26.6309 281.356 26.1299C281.681 25.7871 281.927 25.3301 282.094 24.7588C282.191 24.416 282.239 24.1611 282.239 23.9941H285.364V43.1104H281.514V29.9268H277.019Z" fill="white"/>
<path d="M325.559 56.9268V54.3691C326.745 54.3164 327.576 54.2373 328.05 54.1318C328.806 53.9648 329.421 53.6309 329.896 53.1299C330.221 52.7871 330.467 52.3301 330.634 51.7588C330.731 51.416 330.779 51.1611 330.779 50.9941H333.904V70.1104H330.054V56.9268H325.559ZM343.33 64.5601C343.33 65.5005 343.572 66.23 344.055 66.7485C344.547 67.2671 345.224 67.5264 346.085 67.5264C346.947 67.5264 347.619 67.2671 348.103 66.7485C348.595 66.23 348.841 65.5005 348.841 64.5601C348.841 63.5845 348.59 62.8462 348.089 62.3452C347.597 61.8354 346.929 61.5806 346.085 61.5806C345.242 61.5806 344.569 61.8354 344.068 62.3452C343.576 62.8462 343.33 63.5845 343.33 64.5601ZM339.428 64.8105C339.428 63.7383 339.669 62.7671 340.153 61.897C340.645 61.0269 341.361 60.3721 342.302 59.9326C341.379 59.3174 340.777 58.6538 340.496 57.9419C340.223 57.2212 340.087 56.5488 340.087 55.9248C340.087 54.5361 340.61 53.354 341.656 52.3784C342.702 51.394 344.178 50.9019 346.085 50.9019C347.993 50.9019 349.469 51.394 350.515 52.3784C351.561 53.354 352.084 54.5361 352.084 55.9248C352.084 56.5488 351.943 57.2212 351.662 57.9419C351.39 58.6538 350.792 59.2734 349.869 59.8008C350.81 60.3281 351.517 61.0269 351.992 61.897C352.466 62.7671 352.704 63.7383 352.704 64.8105C352.704 66.4189 352.106 67.79 350.911 68.9238C349.724 70.0488 348.063 70.6113 345.927 70.6113C343.792 70.6113 342.174 70.0488 341.076 68.9238C339.977 67.79 339.428 66.4189 339.428 64.8105ZM343.673 56.3467C343.673 57.041 343.884 57.6079 344.306 58.0474C344.736 58.4868 345.33 58.7065 346.085 58.7065C346.85 58.7065 347.439 58.4868 347.852 58.0474C348.274 57.6079 348.485 57.041 348.485 56.3467C348.485 55.5908 348.274 55.002 347.852 54.5801C347.439 54.1494 346.85 53.9341 346.085 53.9341C345.33 53.9341 344.736 54.1494 344.306 54.5801C343.884 55.002 343.673 55.5908 343.673 56.3467Z" fill="white"/>
<path d="M391.266 111.997H389.104V116.11H385.426V111.997H377.858V108.714L384.885 97.1128H389.104V109.057H391.266V111.997ZM385.426 109.057V100.804L380.64 109.057H385.426Z" fill="white"/>
<path d="M332.73 391.15C332.766 389.779 333.06 388.527 333.614 387.393C334.15 386.119 335.416 384.77 337.411 383.346C339.142 382.106 340.263 381.219 340.772 380.683C341.555 379.848 341.946 378.934 341.946 377.94C341.946 377.132 341.722 376.459 341.273 375.923C340.825 375.387 340.184 375.119 339.349 375.119C338.206 375.119 337.428 375.545 337.015 376.398C336.778 376.89 336.637 377.672 336.593 378.745H332.941C333.003 377.119 333.297 375.805 333.825 374.803C334.827 372.896 336.606 371.942 339.164 371.942C341.186 371.942 342.794 372.504 343.989 373.629C345.185 374.746 345.782 376.227 345.782 378.072C345.782 379.487 345.36 380.744 344.517 381.843C343.963 382.572 343.053 383.385 341.788 384.282L340.285 385.35C339.344 386.018 338.698 386.501 338.347 386.8C338.004 387.099 337.714 387.446 337.477 387.841H345.822V391.15H332.73Z" fill="white"/>
<path d="M218.403 425.133C218.403 425.898 218.526 426.531 218.772 427.032C219.229 427.955 220.06 428.416 221.264 428.416C222.002 428.416 222.644 428.166 223.189 427.665C223.743 427.155 224.02 426.425 224.02 425.476C224.02 424.219 223.51 423.38 222.49 422.958C221.91 422.721 220.996 422.602 219.748 422.602V419.913C220.97 419.895 221.822 419.776 222.306 419.557C223.141 419.188 223.558 418.44 223.558 417.315C223.558 416.586 223.343 415.993 222.912 415.536C222.49 415.079 221.893 414.85 221.119 414.85C220.231 414.85 219.577 415.131 219.155 415.694C218.742 416.256 218.544 417.008 218.562 417.948H215.055C215.09 416.999 215.252 416.098 215.542 415.246C215.85 414.499 216.333 413.809 216.993 413.176C217.485 412.728 218.069 412.385 218.746 412.147C219.423 411.91 220.253 411.792 221.238 411.792C223.066 411.792 224.538 412.266 225.654 413.215C226.779 414.156 227.342 415.421 227.342 417.012C227.342 418.137 227.008 419.086 226.34 419.86C225.918 420.343 225.479 420.673 225.021 420.849C225.364 420.849 225.856 421.143 226.498 421.732C227.456 422.62 227.935 423.833 227.935 425.371C227.935 426.988 227.373 428.412 226.248 429.642C225.131 430.864 223.475 431.475 221.277 431.475C218.57 431.475 216.689 430.591 215.635 428.825C215.081 427.884 214.773 426.654 214.712 425.133H218.403Z" fill="white"/>
<path d="M157.603 36.0752C157.752 36.8926 158.038 37.5254 158.459 37.9736C158.881 38.4131 159.497 38.6328 160.305 38.6328C161.237 38.6328 161.944 38.3076 162.428 37.6572C162.92 36.998 163.166 36.1719 163.166 35.1787C163.166 34.2031 162.938 33.3813 162.48 32.7134C162.023 32.0366 161.312 31.6982 160.345 31.6982C159.888 31.6982 159.492 31.7554 159.158 31.8696C158.569 32.0806 158.125 32.4717 157.827 33.043L154.452 32.8848L155.796 22.3247H166.33V25.5151H158.512L157.827 29.6943C158.407 29.3164 158.859 29.0659 159.185 28.9429C159.729 28.7407 160.393 28.6396 161.175 28.6396C162.757 28.6396 164.137 29.1714 165.315 30.2349C166.493 31.2983 167.082 32.8452 167.082 34.8755C167.082 36.6421 166.515 38.2197 165.381 39.6084C164.247 40.9971 162.551 41.6914 160.292 41.6914C158.473 41.6914 156.979 41.2036 155.81 40.228C154.641 39.2524 153.99 37.8682 153.858 36.0752H157.603Z" fill="white"/>
<path d="M417.614 225.949C417.614 226.977 417.891 227.816 418.445 228.467C418.999 229.117 419.702 229.442 420.554 229.442C421.389 229.442 422.044 229.13 422.519 228.506C423.002 227.874 423.244 227.056 423.244 226.054C423.244 224.938 422.971 224.085 422.426 223.497C421.881 222.899 421.213 222.6 420.422 222.6C419.781 222.6 419.214 222.793 418.722 223.18C417.983 223.751 417.614 224.674 417.614 225.949ZM422.901 217.696C422.901 217.388 422.782 217.05 422.545 216.681C422.141 216.083 421.53 215.784 420.712 215.784C419.491 215.784 418.621 216.47 418.102 217.841C417.821 218.597 417.627 219.713 417.522 221.189C417.988 220.636 418.528 220.231 419.144 219.977C419.759 219.722 420.462 219.594 421.253 219.594C422.949 219.594 424.338 220.17 425.419 221.321C426.509 222.473 427.054 223.945 427.054 225.738C427.054 227.522 426.522 229.095 425.458 230.458C424.395 231.82 422.743 232.501 420.501 232.501C418.093 232.501 416.318 231.495 415.175 229.482C414.288 227.909 413.844 225.878 413.844 223.391C413.844 221.932 413.905 220.746 414.028 219.832C414.248 218.206 414.674 216.852 415.307 215.771C415.852 214.848 416.564 214.105 417.443 213.543C418.331 212.98 419.39 212.699 420.62 212.699C422.396 212.699 423.811 213.156 424.865 214.07C425.92 214.976 426.513 216.184 426.645 217.696H422.901Z" fill="white"/>
<path d="M111.125 375.445C110.562 375.998 109.78 376.987 108.778 378.411C107.776 379.826 106.937 381.289 106.26 382.801C105.724 383.988 105.241 385.438 104.81 387.152C104.379 388.865 104.164 390.272 104.164 391.37H100.262C100.376 387.943 101.501 384.379 103.637 380.678C105.017 378.385 106.172 376.785 107.104 375.88H97.5723L97.625 372.505H111.125V375.445Z" fill="white"/>
<path d="M30.021 286.73C30.021 287.67 30.2627 288.4 30.7461 288.918C31.2383 289.437 31.915 289.696 32.7764 289.696C33.6377 289.696 34.3101 289.437 34.7935 288.918C35.2856 288.4 35.5317 287.67 35.5317 286.73C35.5317 285.754 35.2812 285.016 34.7803 284.515C34.2881 284.005 33.6201 283.75 32.7764 283.75C31.9326 283.75 31.2603 284.005 30.7593 284.515C30.2671 285.016 30.021 285.754 30.021 286.73ZM26.1187 286.98C26.1187 285.908 26.3604 284.937 26.8438 284.067C27.3359 283.197 28.0522 282.542 28.9927 282.103C28.0698 281.487 27.4678 280.824 27.1865 280.112C26.9141 279.391 26.7778 278.719 26.7778 278.095C26.7778 276.706 27.3008 275.524 28.3467 274.548C29.3926 273.564 30.8691 273.072 32.7764 273.072C34.6836 273.072 36.1602 273.564 37.2061 274.548C38.252 275.524 38.7749 276.706 38.7749 278.095C38.7749 278.719 38.6343 279.391 38.353 280.112C38.0806 280.824 37.4829 281.443 36.5601 281.971C37.5005 282.498 38.208 283.197 38.6826 284.067C39.1572 284.937 39.3945 285.908 39.3945 286.98C39.3945 288.589 38.7969 289.96 37.6016 291.094C36.415 292.219 34.7539 292.781 32.6182 292.781C30.4824 292.781 28.8652 292.219 27.7666 291.094C26.668 289.96 26.1187 288.589 26.1187 286.98ZM30.3638 278.517C30.3638 279.211 30.5747 279.778 30.9966 280.217C31.4272 280.657 32.0205 280.876 32.7764 280.876C33.541 280.876 34.1299 280.657 34.543 280.217C34.9648 279.778 35.1758 279.211 35.1758 278.517C35.1758 277.761 34.9648 277.172 34.543 276.75C34.1299 276.319 33.541 276.104 32.7764 276.104C32.0205 276.104 31.4272 276.319 30.9966 276.75C30.5747 277.172 30.3638 277.761 30.3638 278.517Z" fill="white"/>
<path d="M53.6509 102.888C53.6509 100.84 54.2397 99.1831 55.4175 97.9175C56.604 96.6431 58.1421 96.0059 60.0317 96.0059C62.9409 96.0059 64.936 97.2935 66.0171 99.8687C66.6323 101.328 66.9399 103.248 66.9399 105.63C66.9399 107.941 66.6455 109.871 66.0566 111.417C64.9316 114.362 62.8662 115.834 59.8604 115.834C58.4277 115.834 57.1401 115.412 55.9976 114.568C54.855 113.716 54.2002 112.477 54.0332 110.851H57.7773C57.8652 111.413 58.1025 111.87 58.4893 112.222C58.876 112.573 59.3901 112.749 60.0317 112.749C61.271 112.749 62.1411 112.063 62.6421 110.692C62.9146 109.937 63.0859 108.833 63.1562 107.383C62.8135 107.814 62.4487 108.144 62.062 108.372C61.3589 108.794 60.4932 109.005 59.4648 109.005C57.9443 109.005 56.5952 108.482 55.4175 107.436C54.2397 106.381 53.6509 104.865 53.6509 102.888ZM60.2822 105.946C60.8008 105.946 61.2886 105.797 61.7456 105.498C62.5981 104.953 63.0244 104.008 63.0244 102.664C63.0244 101.583 62.7695 100.726 62.2598 100.093C61.7588 99.46 61.0688 99.1436 60.1899 99.1436C59.5483 99.1436 58.999 99.3237 58.542 99.6841C57.8213 100.247 57.4609 101.2 57.4609 102.545C57.4609 103.679 57.6895 104.531 58.1465 105.103C58.6123 105.665 59.3242 105.946 60.2822 105.946Z" fill="white"/>
<path d="M398.438 273.837V271.279C399.625 271.226 400.456 271.147 400.93 271.042C401.686 270.875 402.301 270.541 402.776 270.04C403.101 269.697 403.347 269.24 403.514 268.669C403.611 268.326 403.659 268.071 403.659 267.904H406.784V287.02H402.934V273.837H398.438ZM416.276 277.647C416.276 279.844 416.456 281.527 416.816 282.696C417.177 283.856 417.915 284.436 419.031 284.436C420.147 284.436 420.877 283.856 421.22 282.696C421.571 281.527 421.747 279.844 421.747 277.647C421.747 275.344 421.571 273.639 421.22 272.531C420.877 271.424 420.147 270.87 419.031 270.87C417.915 270.87 417.177 271.424 416.816 272.531C416.456 273.639 416.276 275.344 416.276 277.647ZM419.031 267.772C421.466 267.772 423.171 268.629 424.146 270.343C425.131 272.057 425.623 274.491 425.623 277.647C425.623 280.802 425.131 283.232 424.146 284.937C423.171 286.642 421.466 287.495 419.031 287.495C416.597 287.495 414.887 286.642 413.903 284.937C412.927 283.232 412.439 280.802 412.439 277.647C412.439 274.491 412.927 272.057 413.903 270.343C414.887 268.629 416.597 267.772 419.031 267.772Z" fill="white"/>
<path d="M10.8721 218.816V216.259C12.0586 216.206 12.8892 216.127 13.3638 216.021C14.1196 215.854 14.7349 215.521 15.2095 215.02C15.5347 214.677 15.7808 214.22 15.9478 213.648C16.0444 213.306 16.0928 213.051 16.0928 212.884H19.2173V232H15.3677V218.816H10.8721ZM24.4248 218.816V216.259C25.6113 216.206 26.4419 216.127 26.9165 216.021C27.6724 215.854 28.2876 215.521 28.7622 215.02C29.0874 214.677 29.3335 214.22 29.5005 213.648C29.5972 213.306 29.6455 213.051 29.6455 212.884H32.77V232H28.9204V218.816H24.4248Z" fill="white"/>
<path d="M85.6987 59.0068V56.4492C86.8853 56.3965 87.7158 56.3174 88.1904 56.2119C88.9463 56.0449 89.5615 55.7109 90.0361 55.21C90.3613 54.8672 90.6074 54.4102 90.7744 53.8389C90.8711 53.4961 90.9194 53.2412 90.9194 53.0742H94.0439V72.1904H90.1943V59.0068H85.6987ZM99.6997 72.1904C99.7349 70.8193 100.029 69.5669 100.583 68.4331C101.119 67.1587 102.385 65.8096 104.38 64.3857C106.111 63.1465 107.232 62.2588 107.742 61.7227C108.524 60.8877 108.915 59.9736 108.915 58.9805C108.915 58.1719 108.691 57.4995 108.243 56.9634C107.794 56.4272 107.153 56.1592 106.318 56.1592C105.175 56.1592 104.397 56.5854 103.984 57.438C103.747 57.9302 103.606 58.7124 103.562 59.7847H99.9106C99.9722 58.1587 100.267 56.8447 100.794 55.8428C101.796 53.9355 103.576 52.9819 106.133 52.9819C108.155 52.9819 109.763 53.5444 110.958 54.6694C112.154 55.7856 112.751 57.2666 112.751 59.1123C112.751 60.5273 112.33 61.7842 111.486 62.8828C110.932 63.6123 110.022 64.4253 108.757 65.3218L107.254 66.3896C106.313 67.0576 105.667 67.541 105.316 67.8398C104.973 68.1387 104.683 68.4858 104.446 68.8813H112.791V72.1904H99.6997Z" fill="white"/>
<path d="M397.739 159.317V156.759C398.925 156.706 399.756 156.627 400.23 156.522C400.986 156.355 401.602 156.021 402.076 155.52C402.401 155.177 402.647 154.72 402.814 154.149C402.911 153.806 402.959 153.551 402.959 153.384H406.084V172.5H402.234V159.317H397.739ZM415.299 166.634C415.299 167.398 415.422 168.031 415.668 168.532C416.125 169.455 416.956 169.916 418.16 169.916C418.898 169.916 419.54 169.666 420.085 169.165C420.639 168.655 420.916 167.926 420.916 166.976C420.916 165.719 420.406 164.88 419.386 164.458C418.806 164.221 417.892 164.102 416.644 164.102V161.413C417.866 161.395 418.718 161.277 419.202 161.057C420.037 160.688 420.454 159.941 420.454 158.816C420.454 158.086 420.239 157.493 419.808 157.036C419.386 156.579 418.789 156.35 418.015 156.35C417.127 156.35 416.473 156.632 416.051 157.194C415.638 157.757 415.44 158.508 415.458 159.448H411.951C411.986 158.499 412.148 157.598 412.438 156.746C412.746 155.999 413.229 155.309 413.889 154.676C414.381 154.228 414.965 153.885 415.642 153.648C416.319 153.41 417.149 153.292 418.134 153.292C419.962 153.292 421.434 153.766 422.55 154.716C423.675 155.656 424.238 156.922 424.238 158.512C424.238 159.637 423.904 160.587 423.236 161.36C422.814 161.844 422.375 162.173 421.917 162.349C422.26 162.349 422.752 162.643 423.394 163.232C424.352 164.12 424.831 165.333 424.831 166.871C424.831 168.488 424.269 169.912 423.144 171.142C422.027 172.364 420.371 172.975 418.173 172.975C415.466 172.975 413.585 172.092 412.531 170.325C411.977 169.385 411.669 168.154 411.608 166.634H415.299Z" fill="white"/>
<path d="M18.5688 155.357V152.799C19.7554 152.746 20.5859 152.667 21.0605 152.562C21.8164 152.395 22.4316 152.061 22.9062 151.56C23.2314 151.217 23.4775 150.76 23.6445 150.189C23.7412 149.846 23.7896 149.591 23.7896 149.424H26.9141V168.54H23.0645V155.357H18.5688ZM45.8457 164.427H43.6836V168.54H40.0054V164.427H32.438V161.144L39.4648 149.543H43.6836V161.487H45.8457V164.427ZM40.0054 161.487V153.234L35.2197 161.487H40.0054Z" fill="white"/>
<path d="M369.608 333.487V330.929C370.795 330.876 371.625 330.797 372.1 330.692C372.856 330.525 373.471 330.191 373.946 329.69C374.271 329.347 374.517 328.89 374.684 328.319C374.781 327.976 374.829 327.721 374.829 327.554H377.954V346.67H374.104V333.487H369.608ZM387.222 341.555C387.371 342.373 387.657 343.005 388.079 343.454C388.5 343.893 389.116 344.113 389.924 344.113C390.856 344.113 391.563 343.788 392.047 343.137C392.539 342.478 392.785 341.652 392.785 340.659C392.785 339.683 392.557 338.861 392.1 338.193C391.643 337.517 390.931 337.178 389.964 337.178C389.507 337.178 389.111 337.235 388.777 337.35C388.188 337.561 387.745 337.952 387.446 338.523L384.071 338.365L385.416 327.805H395.949V330.995H388.131L387.446 335.174C388.026 334.796 388.479 334.546 388.804 334.423C389.349 334.221 390.012 334.12 390.794 334.12C392.376 334.12 393.756 334.651 394.934 335.715C396.112 336.778 396.701 338.325 396.701 340.355C396.701 342.122 396.134 343.7 395 345.088C393.866 346.477 392.17 347.171 389.911 347.171C388.092 347.171 386.598 346.684 385.429 345.708C384.26 344.732 383.609 343.348 383.478 341.555H387.222Z" fill="white"/>
<path d="M45.6987 333.707V331.149C46.8853 331.096 47.7158 331.017 48.1904 330.912C48.9463 330.745 49.5615 330.411 50.0361 329.91C50.3613 329.567 50.6074 329.11 50.7744 328.539C50.8711 328.196 50.9194 327.941 50.9194 327.774H54.0439V346.89H50.1943V333.707H45.6987ZM63.4702 340.839C63.4702 341.867 63.7471 342.707 64.3008 343.357C64.8545 344.008 65.5576 344.333 66.4102 344.333C67.2451 344.333 67.8999 344.021 68.3745 343.397C68.8579 342.764 69.0996 341.947 69.0996 340.945C69.0996 339.828 68.8271 338.976 68.2822 338.387C67.7373 337.789 67.0693 337.49 66.2783 337.49C65.6367 337.49 65.0698 337.684 64.5776 338.071C63.8394 338.642 63.4702 339.565 63.4702 340.839ZM68.7568 332.586C68.7568 332.279 68.6382 331.94 68.4009 331.571C67.9966 330.973 67.3857 330.675 66.5684 330.675C65.3467 330.675 64.4766 331.36 63.958 332.731C63.6768 333.487 63.4834 334.603 63.3779 336.08C63.8438 335.526 64.3843 335.122 64.9995 334.867C65.6147 334.612 66.3179 334.485 67.1089 334.485C68.8052 334.485 70.1938 335.06 71.2749 336.212C72.3647 337.363 72.9097 338.835 72.9097 340.628C72.9097 342.412 72.3779 343.986 71.3145 345.348C70.251 346.71 68.5986 347.391 66.3574 347.391C63.9492 347.391 62.1738 346.385 61.0312 344.372C60.1436 342.799 59.6997 340.769 59.6997 338.281C59.6997 336.823 59.7612 335.636 59.8843 334.722C60.104 333.096 60.5303 331.742 61.1631 330.661C61.708 329.739 62.4199 328.996 63.2988 328.433C64.1865 327.871 65.2456 327.59 66.4761 327.59C68.2515 327.59 69.6665 328.047 70.7212 328.961C71.7759 329.866 72.3691 331.074 72.501 332.586H68.7568Z" fill="white"/>
<path d="M271.139 406.816V404.259C272.325 404.206 273.156 404.127 273.63 404.021C274.386 403.854 275.001 403.521 275.476 403.02C275.801 402.677 276.047 402.22 276.214 401.648C276.311 401.306 276.359 401.051 276.359 400.884H279.484V420H275.634V406.816H271.139ZM298.534 404.074C297.972 404.628 297.189 405.617 296.188 407.041C295.186 408.456 294.346 409.919 293.669 411.431C293.133 412.617 292.65 414.067 292.219 415.781C291.789 417.495 291.573 418.901 291.573 420H287.671C287.785 416.572 288.91 413.008 291.046 409.308C292.426 407.014 293.582 405.415 294.513 404.509H284.981L285.034 401.134H298.534V404.074Z" fill="white"/>
<path d="M145.872 406.816V404.259C147.059 404.206 147.889 404.127 148.364 404.021C149.12 403.854 149.735 403.521 150.209 403.02C150.535 402.677 150.781 402.22 150.948 401.648C151.044 401.306 151.093 401.051 151.093 400.884H154.217V420H150.368V406.816H145.872ZM159.833 407.607C159.833 405.56 160.422 403.903 161.6 402.637C162.787 401.363 164.325 400.726 166.214 400.726C169.124 400.726 171.119 402.013 172.2 404.588C172.815 406.047 173.123 407.968 173.123 410.35C173.123 412.661 172.828 414.59 172.239 416.137C171.114 419.082 169.049 420.554 166.043 420.554C164.61 420.554 163.323 420.132 162.18 419.288C161.038 418.436 160.383 417.196 160.216 415.57H163.96C164.048 416.133 164.285 416.59 164.672 416.941C165.059 417.293 165.573 417.469 166.214 417.469C167.454 417.469 168.324 416.783 168.825 415.412C169.097 414.656 169.269 413.553 169.339 412.103C168.996 412.534 168.631 412.863 168.245 413.092C167.542 413.514 166.676 413.725 165.647 413.725C164.127 413.725 162.778 413.202 161.6 412.156C160.422 411.101 159.833 409.585 159.833 407.607ZM166.465 410.666C166.983 410.666 167.471 410.517 167.928 410.218C168.781 409.673 169.207 408.728 169.207 407.383C169.207 406.302 168.952 405.445 168.442 404.812C167.941 404.18 167.251 403.863 166.373 403.863C165.731 403.863 165.182 404.043 164.725 404.404C164.004 404.966 163.644 405.92 163.644 407.265C163.644 408.398 163.872 409.251 164.329 409.822C164.795 410.385 165.507 410.666 166.465 410.666Z" fill="white"/>
<defs>
<filter id="filter0_d_149_354" x="298.537" y="205.32" width="40.0273" height="43.0601" filterUnits="userSpaceOnUse" color-interpolation-filters="sRGB">
<feFlood flood-opacity="0" result="BackgroundImageFix"/>
<feColorMatrix in="SourceAlpha" type="matrix" values="0 0 0 0 0 0 0 0 0 0 0 0 0 0 0 0 0 0 127 0" result="hardAlpha"/>
<feOffset dy="4"/>
<feGaussianBlur stdDeviation="2"/>
<feComposite in2="hardAlpha" operator="out"/>
<feColorMatrix type="matrix" values="0 0 0 0 0 0 0 0 0 0 0 0 0 0 0 0 0 0 0.25 0"/>
<feBlend mode="normal" in2="BackgroundImageFix" result="effect1_dropShadow_149_354"/>
<feBlend mode="normal" in="SourceGraphic" in2="effect1_dropShadow_149_354" result="shape"/>
</filter>
</defs>
</svg>
