<svg width="652" height="652" viewBox="0 0 652 652" fill="none" xmlns="http://www.w3.org/2000/svg">
<g clip-path="url(#clip0_27_540)">
<path d="M324.3 0.0113525C503.988 0.0113525 649.653 145.677 649.653 325.365C649.653 505.052 503.988 650.718 324.3 650.718C144.612 650.718 -1.0531 505.052 -1.0531 325.365C-1.0531 145.677 144.612 0.0113525 324.3 0.0113525Z" fill="black"/>
<path d="M324.3 325.365L362.464 84.351C337.179 80.3491 311.421 80.3491 286.136 84.351L324.3 325.365Z" fill="#FF0000"/>
<path d="M324.3 325.365L360.438 97.1482C336.495 93.3588 312.105 93.3588 288.163 97.1482L324.3 325.365Z" fill="black"/>
<path d="M324.3 325.365L348.279 173.931C332.392 171.417 316.208 171.417 300.321 173.931L324.3 325.365Z" fill="#FF0000"/>
<path d="M324.3 325.365L346.253 186.728C331.708 184.426 316.892 184.426 302.347 186.728L324.3 325.365Z" fill="black"/>
<path d="M324.3 325.364L286.119 84.3536C260.835 88.3611 236.337 96.3208 213.527 107.94L324.3 325.364Z" fill="#008000"/>
<path d="M324.3 325.364L288.146 97.1506C264.205 100.945 241.008 108.482 219.409 119.485L324.3 325.364Z" fill="white"/>
<path d="M324.3 325.364L300.31 173.933C284.424 176.451 269.032 181.452 254.699 188.753L324.3 325.364Z" fill="#008000"/>
<path d="M324.3 325.364L302.337 186.73C287.794 189.035 273.702 193.614 260.581 200.297L324.3 325.364Z" fill="white"/>
<path d="M324.3 325.364L213.511 107.948C190.703 119.573 169.864 134.713 151.761 152.813L324.3 325.364Z" fill="#FF0000"/>
<path d="M324.3 325.364L219.394 119.492C197.797 130.5 178.064 144.836 160.922 161.975L324.3 325.364Z" fill="black"/>
<path d="M324.3 325.364L254.689 188.758C240.359 196.062 227.265 205.575 215.89 216.947L324.3 325.364Z" fill="#FF0000"/>
<path d="M324.3 325.364L260.572 200.302C247.452 206.989 235.465 215.698 225.052 226.109L324.3 325.364Z" fill="black"/>
<path d="M324.3 325.364L151.748 152.825C133.649 170.929 118.508 191.767 106.884 214.576L324.3 325.364Z" fill="#008000"/>
<path d="M324.3 325.364L160.91 161.986C143.772 179.129 129.435 198.861 118.428 220.458L324.3 325.364Z" fill="white"/>
<path d="M324.3 325.364L215.883 216.955C204.51 228.33 194.997 241.423 187.693 255.754L324.3 325.364Z" fill="#008000"/>
<path d="M324.3 325.364L225.045 226.116C214.633 236.53 205.924 248.517 199.238 261.636L324.3 325.364Z" fill="white"/>
<path d="M324.3 325.364L106.874 214.595C95.255 237.406 87.2957 261.903 83.2887 287.187L324.3 325.364Z" fill="#FF0000"/>
<path d="M324.3 325.364L118.419 220.476C107.417 242.076 99.8799 265.273 96.0857 289.214L324.3 325.364Z" fill="black"/>
<path d="M324.3 325.364L187.687 255.766C180.387 270.098 175.386 285.491 172.868 301.377L324.3 325.364Z" fill="#FF0000"/>
<path d="M324.3 325.364L199.232 261.647C192.548 274.769 187.97 288.86 185.665 303.404L324.3 325.364Z" fill="black"/>
<path d="M324.3 325.364L83.2865 287.2C79.2847 312.485 79.2847 338.243 83.2865 363.528L324.3 325.364Z" fill="#008000"/>
<path d="M324.3 325.364L96.0837 289.227C92.2944 313.169 92.2944 337.56 96.0837 361.502L324.3 325.364Z" fill="white"/>
<path d="M324.3 325.364L172.867 301.385C170.352 317.272 170.352 333.457 172.867 349.344L324.3 325.364Z" fill="#008000"/>
<path d="M324.3 325.364L185.664 303.412C183.362 317.956 183.362 332.773 185.664 347.317L324.3 325.364Z" fill="white"/>
<path d="M324.3 325.365L83.2893 363.546C87.2967 388.83 95.2565 413.327 106.876 436.138L324.3 325.365Z" fill="#FF0000"/>
<path d="M324.3 325.365L96.0863 361.518C99.881 385.46 107.418 408.657 118.421 430.256L324.3 325.365Z" fill="black"/>
<path d="M324.3 325.365L172.868 349.355C175.386 365.241 180.388 380.633 187.688 394.966L324.3 325.365Z" fill="#FF0000"/>
<path d="M324.3 325.365L185.666 347.327C187.971 361.871 192.549 375.963 199.233 389.084L324.3 325.365Z" fill="black"/>
<path d="M324.3 325.364L106.884 436.153C118.508 458.961 133.649 479.8 151.748 497.904L324.3 325.364Z" fill="#008000"/>
<path d="M324.3 325.364L118.428 430.271C129.435 451.868 143.772 471.6 160.91 488.743L324.3 325.364Z" fill="white"/>
<path d="M324.3 325.364L187.693 394.975C194.997 409.306 204.51 422.399 215.883 433.774L324.3 325.364Z" fill="#008000"/>
<path d="M324.3 325.364L199.238 389.093C205.924 402.212 214.633 414.199 225.045 424.613L324.3 325.364Z" fill="white"/>
<path d="M324.3 325.364L151.761 497.916C169.864 516.016 190.703 531.156 213.511 542.781L324.3 325.364Z" fill="#FF0000"/>
<path d="M324.3 325.364L160.922 488.754C178.064 505.893 197.797 520.229 219.394 531.236L324.3 325.364Z" fill="black"/>
<path d="M324.3 325.364L215.89 433.782C227.265 445.154 240.359 454.667 254.689 461.971L324.3 325.364Z" fill="#FF0000"/>
<path d="M324.3 325.364L225.052 424.62C235.465 435.031 247.452 443.74 260.572 450.427L324.3 325.364Z" fill="black"/>
<path d="M324.3 325.364L213.527 542.789C236.337 554.408 260.835 562.368 286.119 566.375L324.3 325.364Z" fill="#008000"/>
<path d="M324.3 325.364L219.409 531.244C241.008 542.246 264.205 549.783 288.146 553.578L324.3 325.364Z" fill="white"/>
<path d="M324.3 325.364L254.699 461.976C269.032 469.277 284.424 474.278 300.31 476.796L324.3 325.364Z" fill="#008000"/>
<path d="M324.3 325.364L260.581 450.431C273.702 457.115 287.794 461.694 302.337 463.999L324.3 325.364Z" fill="white"/>
<path d="M324.3 325.365L286.136 566.378C311.421 570.38 337.179 570.38 362.464 566.378L324.3 325.365Z" fill="#FF0000"/>
<path d="M324.3 325.365L288.163 553.581C312.105 557.37 336.495 557.37 360.438 553.581L324.3 325.365Z" fill="black"/>
<path d="M324.3 325.365L300.321 476.798C316.208 479.312 332.392 479.312 348.279 476.798L324.3 325.365Z" fill="#FF0000"/>
<path d="M324.3 325.365L302.347 464.001C316.892 466.303 331.708 466.303 346.253 464.001L324.3 325.365Z" fill="black"/>
<path d="M324.3 325.365L362.481 566.375C387.765 562.368 412.263 554.408 435.073 542.789L324.3 325.365Z" fill="#008000"/>
<path d="M324.3 325.365L360.454 553.578C384.395 549.784 407.592 542.247 429.192 531.244L324.3 325.365Z" fill="white"/>
<path d="M324.3 325.365L348.29 476.796C364.176 474.278 379.569 469.277 393.901 461.976L324.3 325.365Z" fill="#008000"/>
<path d="M324.3 325.365L346.263 463.999C360.807 461.694 374.898 457.115 388.019 450.432L324.3 325.365Z" fill="white"/>
<path d="M324.3 325.364L435.089 542.781C457.897 531.156 478.736 516.016 496.839 497.916L324.3 325.364Z" fill="#FF0000"/>
<path d="M324.3 325.364L429.206 531.236C450.803 520.229 470.536 505.893 487.678 488.754L324.3 325.364Z" fill="black"/>
<path d="M324.3 325.364L393.911 461.971C408.242 454.667 421.335 445.154 432.71 433.782L324.3 325.364Z" fill="#FF0000"/>
<path d="M324.3 325.364L388.028 450.427C401.148 443.74 413.135 435.031 423.548 424.62L324.3 325.364Z" fill="black"/>
<path d="M324.3 325.365L496.852 497.904C514.952 479.8 530.092 458.962 541.716 436.153L324.3 325.365Z" fill="#008000"/>
<path d="M324.3 325.365L487.69 488.743C504.828 471.6 519.165 451.868 530.172 430.271L324.3 325.365Z" fill="white"/>
<path d="M324.3 325.365L432.718 433.774C444.09 422.4 453.603 409.306 460.907 394.975L324.3 325.365Z" fill="#008000"/>
<path d="M324.3 325.365L423.556 424.613C433.967 414.199 442.676 402.212 449.363 389.093L324.3 325.365Z" fill="white"/>
<path d="M324.3 325.364L541.724 436.138C553.344 413.327 561.303 388.83 565.311 363.546L324.3 325.364Z" fill="#FF0000"/>
<path d="M324.3 325.364L530.18 430.256C541.182 408.657 548.719 385.46 552.514 361.518L324.3 325.364Z" fill="black"/>
<path d="M324.3 325.364L460.912 394.965C468.212 380.633 473.214 365.241 475.732 349.354L324.3 325.364Z" fill="#FF0000"/>
<path d="M324.3 325.364L449.367 389.084C456.051 375.962 460.629 361.871 462.935 347.327L324.3 325.364Z" fill="black"/>
<path d="M324.3 325.364L565.314 363.528C569.315 338.243 569.315 312.485 565.314 287.2L324.3 325.364Z" fill="#008000"/>
<path d="M324.3 325.364L552.516 361.502C556.306 337.56 556.306 313.169 552.516 289.227L324.3 325.364Z" fill="white"/>
<path d="M324.3 325.364L475.733 349.343C478.248 333.457 478.248 317.272 475.733 301.385L324.3 325.364Z" fill="#008000"/>
<path d="M324.3 325.364L462.936 347.317C465.238 332.773 465.238 317.956 462.936 303.412L324.3 325.364Z" fill="white"/>
<path d="M324.3 325.364L565.312 287.187C561.305 261.903 553.345 237.406 541.726 214.595L324.3 325.364Z" fill="#FF0000"/>
<path d="M324.3 325.364L552.514 289.214C548.72 265.273 541.183 242.076 530.181 220.476L324.3 325.364Z" fill="black"/>
<path d="M324.3 325.364L475.732 301.377C473.214 285.491 468.213 270.098 460.913 255.766L324.3 325.364Z" fill="#FF0000"/>
<path d="M324.3 325.364L462.935 303.404C460.63 288.86 456.052 274.769 449.368 261.647L324.3 325.364Z" fill="black"/>
<path d="M324.3 325.365L541.716 214.576C530.092 191.768 514.952 170.929 496.852 152.825L324.3 325.365Z" fill="#008000"/>
<path d="M324.3 325.365L530.172 220.458C519.165 198.861 504.828 179.129 487.69 161.986L324.3 325.365Z" fill="white"/>
<path d="M324.3 325.365L460.907 255.754C453.603 241.423 444.09 228.33 432.718 216.955L324.3 325.365Z" fill="#008000"/>
<path d="M324.3 325.365L449.363 261.636C442.676 248.517 433.967 236.53 423.556 226.116L324.3 325.365Z" fill="white"/>
<path d="M324.3 325.364L496.84 152.812C478.736 134.713 457.897 119.573 435.089 107.948L324.3 325.364Z" fill="#FF0000"/>
<path d="M324.3 325.364L487.678 161.975C470.536 144.836 450.803 130.5 429.206 119.492L324.3 325.364Z" fill="black"/>
<path d="M324.3 325.364L432.71 216.947C421.335 205.574 408.242 196.062 393.911 188.758L324.3 325.364Z" fill="#FF0000"/>
<path d="M324.3 325.364L423.548 226.109C413.135 215.698 401.148 206.989 388.028 200.302L324.3 325.364Z" fill="black"/>
<path d="M324.3 325.365L435.073 107.94C412.263 96.321 387.765 88.3612 362.481 84.3538L324.3 325.365Z" fill="#008000"/>
<path d="M324.3 325.365L429.192 119.485C407.592 108.483 384.395 100.946 360.454 97.1509L324.3 325.365Z" fill="white"/>
<path d="M324.3 325.365L393.901 188.753C379.569 181.452 364.176 176.451 348.29 173.933L324.3 325.365Z" fill="#008000"/>
<path d="M324.3 325.365L388.019 200.298C374.898 193.614 360.807 189.035 346.263 186.73L324.3 325.365Z" fill="white"/>
<path d="M324.3 301.755C337.339 301.755 347.91 312.325 347.91 325.364C347.91 338.404 337.339 348.974 324.3 348.974C311.261 348.974 300.69 338.404 300.69 325.364C300.69 312.325 311.261 301.755 324.3 301.755Z" fill="#008000"/>
<path d="M324.3 315.503C329.746 315.503 334.161 319.918 334.161 325.364C334.161 330.811 329.746 335.226 324.3 335.226C318.854 335.226 314.439 330.811 314.439 325.364C314.439 319.918 318.854 315.503 324.3 315.503Z" fill="#FF0000"/>
<path d="M327.994 302.043L362.479 84.3728" stroke="#C0C0C0" stroke-width="1.104"/>
<path d="M320.607 302.043L286.14 84.37" stroke="#C0C0C0" stroke-width="1.104"/>
<path d="M313.58 304.325L213.536 107.957" stroke="#C0C0C0" stroke-width="1.104"/>
<path d="M307.604 308.668L151.774 152.826" stroke="#C0C0C0" stroke-width="1.104"/>
<path d="M303.261 314.645L106.899 214.588" stroke="#C0C0C0" stroke-width="1.104"/>
<path d="M300.978 321.67L83.3083 287.186" stroke="#C0C0C0" stroke-width="1.104"/>
<path d="M300.978 329.058L83.3055 363.525" stroke="#C0C0C0" stroke-width="1.104"/>
<path d="M303.261 336.084L106.893 436.129" stroke="#C0C0C0" stroke-width="1.104"/>
<path d="M307.603 342.061L151.762 497.89" stroke="#C0C0C0" stroke-width="1.104"/>
<path d="M313.58 346.403L213.519 542.763" stroke="#C0C0C0" stroke-width="1.104"/>
<path d="M320.606 348.686L286.121 566.356" stroke="#C0C0C0" stroke-width="1.104"/>
<path d="M327.994 348.686L362.461 566.359" stroke="#C0C0C0" stroke-width="1.104"/>
<path d="M335.02 346.404L435.064 542.772" stroke="#C0C0C0" stroke-width="1.104"/>
<path d="M340.996 342.061L496.826 497.903" stroke="#C0C0C0" stroke-width="1.104"/>
<path d="M345.339 336.084L541.699 436.145" stroke="#C0C0C0" stroke-width="1.104"/>
<path d="M347.622 329.059L565.292 363.543" stroke="#C0C0C0" stroke-width="1.104"/>
<path d="M347.622 321.671L565.295 287.208" stroke="#C0C0C0" stroke-width="1.104"/>
<path d="M345.339 314.645L541.707 214.6" stroke="#C0C0C0" stroke-width="1.104"/>
<path d="M340.997 308.668L496.839 152.839" stroke="#C0C0C0" stroke-width="1.104"/>
<path d="M335.02 304.326L435.081 107.966" stroke="#C0C0C0" stroke-width="1.104"/>
<path d="M324.3 81.3495C459.066 81.3495 568.315 190.599 568.315 325.364C568.315 460.13 459.066 569.379 324.3 569.379C189.534 569.379 80.2852 460.13 80.2852 325.364C80.2852 190.599 189.534 81.3495 324.3 81.3495Z" stroke="#C0C0C0" stroke-width="1.104"/>
<path d="M324.3 94.3061C451.91 94.3061 555.358 197.754 555.358 325.364C555.358 452.974 451.91 556.423 324.3 556.423C196.69 556.423 93.2417 452.974 93.2417 325.364C93.2417 197.754 196.69 94.3061 324.3 94.3061Z" stroke="#C0C0C0" stroke-width="1.104"/>
<path d="M324.3 172.045C408.976 172.045 477.619 240.689 477.619 325.364C477.619 410.04 408.976 478.684 324.3 478.684C239.624 478.684 170.981 410.04 170.981 325.364C170.981 240.689 239.624 172.045 324.3 172.045Z" stroke="#C0C0C0" stroke-width="1.104"/>
<path d="M324.3 185.002C401.82 185.002 464.663 247.844 464.663 325.364C464.663 402.885 401.82 465.727 324.3 465.727C246.78 465.727 183.938 402.885 183.938 325.364C183.938 247.844 246.78 185.002 324.3 185.002Z" stroke="#C0C0C0" stroke-width="1.104"/>
<path d="M324.3 301.755C337.339 301.755 347.91 312.325 347.91 325.364C347.91 338.404 337.339 348.974 324.3 348.974C311.261 348.974 300.69 338.404 300.69 325.364C300.69 312.325 311.261 301.755 324.3 301.755Z" stroke="#C0C0C0" stroke-width="1.104"/>
<path d="M324.3 315.503C329.746 315.503 334.161 319.918 334.161 325.364C334.161 330.811 329.746 335.226 324.3 335.226C318.854 335.226 314.439 330.811 314.439 325.364C314.439 319.918 318.854 315.503 324.3 315.503Z" stroke="#C0C0C0" stroke-width="1.104"/>
<path d="M629.678 325.871C629.678 323.958 629.026 322.44 627.709 321.315C626.405 320.205 624.619 319.649 622.337 319.649C620.068 319.649 618.281 320.205 616.951 321.315C615.647 322.44 614.995 323.958 614.995 325.871C614.995 327.783 615.647 329.294 616.951 330.405C618.281 331.529 620.068 332.091 622.337 332.091C624.619 332.091 626.405 331.529 627.709 330.405C629.026 329.294 629.678 327.783 629.678 325.871ZM643.018 334.327H639.145C639.654 333.258 640.032 332.176 640.306 331.079C640.566 329.997 640.697 328.921 640.697 327.853C640.697 325.04 639.758 322.89 637.854 321.399C635.963 319.923 633.095 319.08 629.248 318.868C630.474 319.698 631.412 320.738 632.051 321.99C632.716 323.241 633.042 324.619 633.042 326.124C633.042 329.286 632.09 331.782 630.161 333.61C628.244 335.451 625.636 336.372 622.337 336.372C619.103 336.372 616.508 335.416 614.552 333.504C612.596 331.593 611.618 329.047 611.618 325.871C611.618 322.229 613.013 319.445 615.804 317.519C618.594 315.593 622.65 314.63 627.944 314.63C632.925 314.63 636.889 315.81 639.836 318.173C642.809 320.535 644.283 323.705 644.283 327.683C644.283 328.753 644.179 329.828 643.97 330.911C643.761 332.007 643.448 333.146 643.018 334.327Z" fill="#C0C0C0"/>
<path d="M594.731 214.305L596.882 220.916L619.729 213.496L615.947 206.768L619.637 205.568L623.406 212.257L624.723 216.313L598.186 224.932L600.338 231.544L596.935 232.652L591.327 215.413L594.731 214.305ZM619.702 247.804C619.911 249.878 619.546 251.677 618.581 253.177C617.629 254.703 616.195 255.785 614.265 256.398C611.318 257.363 608.697 257.089 606.415 255.589C604.146 254.077 602.398 251.456 601.173 247.713C600.768 246.448 600.468 245.118 600.299 243.697C600.103 242.289 600.025 240.802 600.064 239.224L603.976 237.959C603.676 239.289 603.585 240.685 603.689 242.119C603.781 243.566 604.067 245.027 604.55 246.474C605.371 249.017 606.506 250.791 607.94 251.782C609.375 252.799 611.044 252.994 612.961 252.368C614.721 251.795 615.895 250.725 616.482 249.161C617.081 247.609 617.029 245.731 616.312 243.527L615.178 240.033L618.503 238.95L619.689 242.601C620.341 244.597 621.228 245.992 622.363 246.787C623.51 247.583 624.827 247.739 626.327 247.257C627.865 246.748 628.87 245.822 629.326 244.466C629.795 243.11 629.704 241.415 629.052 239.381C628.687 238.272 628.178 237.125 627.526 235.925C626.874 234.738 626.053 233.46 625.049 232.104L628.648 230.931C629.587 232.326 630.369 233.669 631.021 234.934C631.673 236.212 632.195 237.451 632.573 238.637C633.577 241.715 633.668 244.375 632.847 246.618C632.038 248.861 630.434 250.373 628.061 251.143C626.405 251.69 624.84 251.664 623.38 251.091C621.945 250.517 620.707 249.421 619.702 247.804Z" fill="#C0C0C0"/>
<path d="M581.247 141.907L561.335 143.093L567.647 151.791L581.247 141.907ZM583.595 138.829L586.75 143.158L570.137 155.22L572.785 158.859L569.916 160.932L567.282 157.307L561.27 161.662L558.78 158.233L564.791 153.877L556.432 142.376L559.758 139.964L583.595 138.829Z" fill="#C0C0C0"/>
<path d="M477.77 76.524L483.401 80.6186L497.518 61.189L490.502 57.9681L492.784 54.8254L499.761 58.0203L503.216 60.5239L486.813 83.0962L492.445 87.1907L490.335 90.0856L475.663 79.4319L477.77 76.524ZM513.4 88.3643C511.77 87.1777 510.153 86.6822 508.576 86.8647C507.011 87.0734 505.668 87.934 504.546 89.4727C503.438 91.0114 503.021 92.5502 503.32 94.1019C503.633 95.6667 504.598 97.0359 506.241 98.2356C507.871 99.4223 509.488 99.9178 511.066 99.7352C512.657 99.5266 514 98.6659 515.109 97.1403C516.23 95.6015 516.634 94.0628 516.321 92.498C516.021 90.9462 515.056 89.564 513.4 88.3643ZM511.027 84.4002C509.814 82.9658 509.149 81.427 509.058 79.8231C508.98 78.2062 509.462 76.6805 510.519 75.22C512.005 73.1858 513.896 72.1035 516.191 71.9731C518.512 71.8427 520.937 72.7033 523.454 74.5289C525.997 76.3806 527.549 78.4148 528.136 80.6446C528.722 82.8745 528.279 85.013 526.792 87.0473C525.736 88.5078 524.432 89.4336 522.867 89.8509C521.303 90.2682 519.66 90.1247 517.938 89.4206C519.307 91.0114 520.051 92.7067 520.155 94.5062C520.272 96.3057 519.738 98.027 518.551 99.6439C516.765 102.122 514.626 103.465 512.162 103.686C509.697 103.908 507.063 103.008 504.259 100.961C501.443 98.9137 499.761 96.6838 499.213 94.2714C498.665 91.859 499.291 89.4206 501.091 86.956C502.264 85.326 503.738 84.2958 505.485 83.8394C507.232 83.3961 509.084 83.5787 511.027 84.4002ZM513.713 78.0366C512.761 79.3537 512.422 80.6838 512.696 82.0138C512.996 83.357 513.883 84.5697 515.369 85.652C516.856 86.7343 518.277 87.2038 519.647 87.0603C521.029 86.943 522.189 86.2127 523.154 84.8957C524.106 83.5786 524.432 82.2355 524.132 80.8924C523.832 79.5493 522.959 78.3366 521.472 77.2673C519.986 76.185 518.551 75.7025 517.182 75.8459C515.826 75.9894 514.678 76.7196 513.713 78.0366Z" fill="#C0C0C0"/>
<path d="M406.442 45.5279L413.06 47.6795L420.484 24.8334L412.814 23.9467L414.013 20.2563L421.642 21.13L425.693 22.4471L417.073 48.9835L423.69 51.1351L422.583 54.5516L405.334 48.9443L406.442 45.5279Z" fill="#C0C0C0"/>
<path d="M305.131 33.844H319.998V37.43H300.006V33.844C301.623 32.1749 303.823 29.932 306.607 27.1153C309.404 24.2987 311.162 22.4731 311.879 21.6516C313.243 20.1259 314.192 18.8349 314.726 17.7787C315.275 16.7094 315.548 15.6662 315.548 14.6361C315.548 12.9669 314.958 11.5978 313.778 10.5415C312.61 9.48527 311.085 8.96369 309.2 8.96369C307.865 8.96369 306.452 9.1984 304.961 9.6548C303.485 10.1242 301.903 10.8284 300.217 11.7673V7.46405C301.932 6.77293 303.535 6.25136 305.025 5.89928C306.516 5.5472 307.88 5.37769 309.116 5.37769C312.378 5.37769 314.979 6.18616 316.919 7.81616C318.859 9.4592 319.829 11.6369 319.829 14.3622C319.829 15.6532 319.583 16.879 319.091 18.0526C318.613 19.2001 317.735 20.5693 316.455 22.1471C316.104 22.5513 314.986 23.7249 313.102 25.6809C311.218 27.6239 308.562 30.3493 305.131 33.844ZM337.986 8.75504C335.794 8.75504 334.142 9.83735 333.031 12.002C331.934 14.1536 331.387 17.3875 331.387 21.7168C331.387 26.033 331.934 29.28 333.031 31.4446C334.142 33.5962 335.794 34.6655 337.986 34.6655C340.194 34.6655 341.846 33.5962 342.943 31.4446C344.054 29.28 344.609 26.033 344.609 21.7168C344.609 17.3875 344.054 14.1536 342.943 12.002C341.846 9.83735 340.194 8.75504 337.986 8.75504ZM337.986 5.37769C341.516 5.37769 344.208 6.77297 346.065 9.57657C347.934 12.3541 348.869 16.4095 348.869 21.7168C348.869 27.0241 347.934 31.0665 346.065 33.8701C344.208 36.6476 341.516 38.0429 337.986 38.0429C334.458 38.0429 331.758 36.6476 329.888 33.8701C328.033 31.0665 327.106 27.0241 327.106 21.7168C327.106 16.4095 328.033 12.3541 329.888 9.57657C331.758 6.77297 334.458 5.37769 337.986 5.37769Z" fill="#C0C0C0"/>
<path d="M216.949 24.3899L232.855 19.2261L233.962 22.6295L221.774 26.5937L224.147 33.9352C224.682 33.544 225.216 33.205 225.777 32.9181C226.325 32.6182 226.898 32.3704 227.485 32.1878C230.831 31.0925 233.776 31.1577 236.324 32.3443C238.871 33.544 240.653 35.7086 241.669 38.8382C242.716 42.0591 242.528 44.9018 241.104 47.3403C239.676 49.7658 237.138 51.5783 233.488 52.765C232.231 53.1692 230.912 53.4821 229.533 53.6908C228.163 53.8994 226.716 54.0168 225.19 54.0429L223.86 49.9744C225.282 50.2352 226.69 50.3134 228.072 50.2221C229.454 50.1309 230.868 49.844 232.3 49.3745C234.613 48.6313 236.247 47.4186 237.201 45.7625C238.157 44.1194 238.295 42.2417 237.617 40.1553C236.941 38.0689 235.728 36.6344 233.982 35.8651C232.237 35.0827 230.207 35.0696 227.89 35.826C226.807 36.178 225.764 36.6475 224.76 37.2343C223.769 37.8211 222.791 38.5513 221.839 39.425L216.949 24.3899Z" fill="#C0C0C0"/>
<path d="M135.11 102.487L140.73 98.3921L126.621 78.9625L121.379 84.6479L119.097 81.5053L124.3 75.8459L127.742 73.3422L144.147 95.9145L149.78 91.8329L151.879 94.7278L137.209 105.381L135.11 102.487ZM159.651 84.6479L171.687 75.9111L173.787 78.806L157.617 90.5681L155.505 87.6601C155.831 85.3521 156.3 82.2485 156.9 78.3365C157.5 74.4115 157.852 71.9078 157.956 70.8255C158.152 68.7782 158.165 67.1743 157.969 66.0137C157.787 64.8271 157.395 63.81 156.796 62.9885C155.805 61.6323 154.527 60.876 152.949 60.7195C151.384 60.55 149.845 61.0194 148.32 62.1278C147.237 62.9102 146.233 63.9273 145.307 65.1792C144.381 66.418 143.508 67.9176 142.699 69.678L140.17 66.1963C141.161 64.6315 142.152 63.2623 143.143 62.1017C144.147 60.9412 145.151 60.0023 146.142 59.2721C148.789 57.3552 151.371 56.4815 153.901 56.6641C156.43 56.8466 158.491 58.0333 160.095 60.2501C160.851 61.2933 161.373 62.4277 161.659 63.6665C161.959 64.8792 162.051 66.4962 161.933 68.5305C161.894 69.0651 161.686 70.669 161.307 73.3553C160.929 76.0415 160.369 79.797 159.651 84.6479Z" fill="#C0C0C0"/>
<path d="M85.558 162.992L82.4153 160.71C83.4585 160.136 84.4105 159.497 85.2711 158.767C86.1317 158.037 86.875 157.241 87.4879 156.381C89.144 154.112 89.6395 151.83 88.9875 149.522C88.3225 147.201 86.4969 144.827 83.5107 142.389C84.0062 143.758 84.1497 145.14 83.941 146.536C83.7193 147.931 83.1717 149.235 82.2719 150.461C80.4333 153.016 78.1904 154.477 75.5693 154.842C72.9483 155.207 70.3012 154.412 67.628 152.469C65.02 150.565 63.4813 148.27 63.0249 145.571C62.5685 142.871 63.2726 140.237 65.1373 137.668C67.2759 134.721 70.0404 133.3 73.4308 133.404C76.8212 133.483 80.6549 135.073 84.9581 138.203C88.9745 141.124 91.4912 144.41 92.4953 148.061C93.4993 151.699 92.8343 155.116 90.5001 158.337C89.8742 159.21 89.157 160.019 88.3355 160.788C87.527 161.545 86.6012 162.275 85.558 162.992ZM79.7421 148.283C80.8636 146.731 81.2287 145.127 80.8245 143.458C80.4202 141.789 79.3118 140.276 77.4601 138.933C75.6345 137.603 73.8611 137.016 72.1398 137.147C70.4185 137.277 68.9972 138.112 67.8627 139.65C66.7413 141.202 66.3892 142.819 66.7934 144.501C67.1977 146.17 68.3191 147.67 70.1447 149C71.9964 150.343 73.7698 150.943 75.4781 150.813C77.1993 150.669 78.6207 149.835 79.7421 148.283Z" fill="#C0C0C0"/>
<path d="M40.231 256.254L42.3826 249.643L19.5365 242.223L18.6498 249.891L14.9595 248.691L15.8332 241.063L17.1502 237.007L43.6866 245.627L45.8382 239.015L49.2416 240.124L43.6475 257.363L40.231 256.254ZM29.0948 212.283L41.7567 227.71L45.0688 217.473L29.0948 212.283ZM25.2089 212.192L26.865 207.106L46.3859 213.444L47.7681 209.167L51.1455 210.262L49.7502 214.539L56.8179 216.834L55.5008 220.864L48.4462 218.569L44.0517 232.091L40.1397 230.813L25.2089 212.192Z" fill="#C0C0C0"/>
<path d="M32.7851 347.423V340.464H8.76541L10.2781 348.035H6.40517L4.87952 340.506V336.245H32.7851V329.286H36.3711V347.423H32.7851ZM32.7851 320.008V313.048H8.76541L10.2781 320.62H6.40517L4.87952 313.09V308.83H32.7851V301.871H36.3711V320.008H32.7851Z" fill="#C0C0C0"/>
<path d="M37.2839 418.597C36.658 416.672 35.6539 415.321 34.2717 414.547C32.8764 413.784 31.2855 413.697 29.473 414.283C27.6734 414.87 26.4346 415.878 25.7566 417.31C25.0915 418.754 25.0655 420.438 25.6914 422.364C26.3173 424.29 27.3344 425.64 28.7167 426.416C30.125 427.187 31.7159 427.28 33.5154 426.699C35.3149 426.112 36.5537 425.096 37.2187 423.653C37.8968 422.221 37.9229 420.536 37.2839 418.597ZM37.7012 413.986C37.5578 412.108 37.9229 410.489 38.7966 409.126C39.6833 407.777 40.9743 406.823 42.6825 406.268C45.0819 405.489 47.2465 405.724 49.1895 406.971C51.1324 408.23 52.5929 410.344 53.5578 413.312C54.5228 416.294 54.588 418.861 53.7535 421.009C52.9059 423.16 51.2889 424.624 48.9026 425.401C47.1943 425.958 45.5774 425.941 44.0778 425.352C42.5651 424.775 41.3263 423.694 40.3353 422.109C40.5178 424.208 40.1267 426.016 39.1487 427.528C38.1837 429.055 36.7362 430.128 34.8324 430.75C31.9245 431.693 29.4078 431.526 27.2823 430.252C25.1567 428.991 23.5659 426.709 22.4835 423.408C21.4143 420.105 21.3621 417.311 22.3401 415.029C23.3181 412.76 25.2611 411.155 28.1559 410.212C30.0728 409.59 31.8593 409.613 33.5415 410.279C35.2236 410.945 36.6059 412.181 37.7012 413.986ZM43.6083 410.422C42.0566 410.927 41.0134 411.801 40.4527 413.046C39.905 414.304 39.905 415.809 40.4787 417.562C41.0395 419.3 41.9131 420.515 43.0998 421.209C44.2995 421.916 45.6686 422.017 47.2204 421.514C48.7722 421.009 49.8154 420.121 50.3631 418.85C50.9238 417.592 50.9107 416.093 50.35 414.355C49.7763 412.604 48.9026 411.381 47.7159 410.687C46.5293 410.006 45.1601 409.919 43.6083 410.422Z" fill="#C0C0C0"/>
<path d="M57.9783 491.544L62.0599 497.174L81.5025 483.055L75.8171 477.824L78.9597 475.542L84.606 480.741L87.1097 484.187L64.5375 500.586L68.632 506.217L65.7372 508.324L55.0704 493.651L57.9783 491.544ZM90.5262 512.78C89.4048 511.232 87.9834 510.388 86.2621 510.247C84.5539 510.117 82.7804 510.721 80.9288 512.06C79.1032 513.39 77.9817 514.894 77.5644 516.569C77.1602 518.248 77.5253 519.858 78.6468 521.41C79.7812 522.948 81.1896 523.796 82.9108 523.926C84.6321 524.057 86.4186 523.457 88.2442 522.127C90.0959 520.784 91.2043 519.284 91.6085 517.601C92.0128 515.933 91.6476 514.326 90.5262 512.78ZM106.292 511.774L103.162 514.055C102.94 512.893 102.614 511.79 102.184 510.746C101.767 509.713 101.245 508.765 100.619 507.9C98.9631 505.625 96.9288 504.443 94.5164 504.353C92.1171 504.274 89.3004 505.278 86.0665 507.363C87.5531 507.315 88.9223 507.607 90.1741 508.239C91.439 508.864 92.5213 509.783 93.408 511.001C95.2597 513.56 95.9508 516.145 95.4683 518.75C94.9989 521.371 93.4341 523.653 90.7609 525.596C88.1529 527.486 85.4928 528.243 82.7804 527.838C80.0812 527.447 77.7861 525.961 75.9214 523.392C73.7828 520.445 73.2743 517.374 74.3957 514.179C75.5302 510.976 78.2295 507.818 82.5196 504.702C86.549 501.777 90.448 500.402 94.2296 500.577C98.0112 500.744 101.076 502.438 103.423 505.656C104.049 506.521 104.596 507.453 105.053 508.453C105.535 509.464 105.939 510.571 106.292 511.774Z" fill="#C0C0C0"/>
<path d="M148.385 550.124L164.763 562.029L163.694 563.503L137.001 580.781L133.402 578.173L158.504 561.912L146.272 553.031L148.385 550.124Z" fill="#C0C0C0"/>
<path d="M206.556 616.367L213.167 618.518L220.6 595.672L212.933 594.773L214.132 591.082L221.761 591.969L225.803 593.286L217.184 619.822L223.808 621.961L222.7 625.377L205.448 619.77L206.556 616.367ZM231.142 627.438L232.34 623.747C233.199 624.556 234.11 625.26 235.071 625.847C236.03 626.447 237.012 626.903 238.015 627.229C240.69 628.103 243.02 627.868 245.006 626.525C247.01 625.182 248.707 622.717 250.098 619.118C248.949 620.005 247.679 620.579 246.29 620.8C244.9 621.035 243.483 620.905 242.039 620.435C239.044 619.47 236.964 617.788 235.798 615.415C234.651 613.042 234.588 610.277 235.609 607.135C236.608 604.057 238.319 601.879 240.742 600.615C243.163 599.35 245.886 599.206 248.907 600.184C252.371 601.319 254.579 603.496 255.533 606.756C256.505 609.99 256.169 614.15 254.528 619.197C252.993 623.917 250.646 627.32 247.482 629.42C244.337 631.493 240.872 631.924 237.088 630.698C236.072 630.372 235.075 629.928 234.097 629.394C233.12 628.846 232.134 628.194 231.142 627.438ZM243.329 617.358C245.148 617.945 246.787 617.788 248.248 616.888C249.721 616.002 250.81 614.463 251.514 612.298C252.213 610.147 252.23 608.269 251.565 606.678C250.917 605.087 249.683 603.992 247.864 603.392C246.046 602.805 244.398 602.962 242.919 603.875C241.459 604.774 240.379 606.3 239.68 608.452C238.976 610.616 238.95 612.494 239.603 614.085C240.268 615.676 241.511 616.771 243.329 617.358Z" fill="#C0C0C0"/>
<path d="M328.118 625.117C330.156 625.547 331.744 626.46 332.884 627.829C334.036 629.211 334.613 630.919 334.613 632.941C334.613 636.044 333.544 638.443 331.408 640.152C329.27 641.847 326.233 642.708 322.297 642.708C320.976 642.708 319.612 642.564 318.206 642.303C316.813 642.042 315.372 641.664 313.882 641.143V637.035C315.063 637.713 316.357 638.235 317.763 638.587C319.168 638.939 320.638 639.122 322.17 639.122C324.842 639.122 326.874 638.587 328.265 637.531C329.671 636.474 330.374 634.949 330.374 632.941C330.374 631.076 329.72 629.628 328.412 628.598C327.119 627.542 325.313 627.007 322.993 627.007H319.323V623.513H323.161C325.257 623.513 326.859 623.095 327.97 622.261C329.08 621.426 329.635 620.214 329.635 618.636C329.635 617.019 329.059 615.78 327.906 614.932C326.768 614.059 325.13 613.615 322.993 613.615C321.826 613.615 320.574 613.746 319.239 614.007C317.903 614.254 316.434 614.645 314.831 615.18V611.385C316.448 610.929 317.959 610.603 319.365 610.368C320.785 610.147 322.121 610.029 323.372 610.029C326.606 610.029 329.165 610.773 331.049 612.246C332.932 613.707 333.875 615.689 333.875 618.192C333.875 619.94 333.375 621.413 332.378 622.626C331.379 623.826 329.959 624.647 328.118 625.117Z" fill="#C0C0C0"/>
<path d="M400.046 630.007L406.665 627.855L399.243 605.009L392.512 608.804L391.312 605.113L398.004 601.332L402.056 600.015L410.677 626.551L417.296 624.399L418.404 627.816L401.155 633.423L400.046 630.007ZM415.774 595.568L435.029 589.309L435.589 591.03L433.888 622.783L429.655 624.152L431.263 594.303L416.882 598.971L415.774 595.568Z" fill="#C0C0C0"/>
<path d="M503.973 581.889L516.008 573.152L518.108 576.047L501.938 587.796L499.826 584.901C500.152 582.593 500.621 579.49 501.221 575.578C501.821 571.64 502.173 569.136 502.264 568.054C502.473 566.019 502.486 564.416 502.29 563.242C502.108 562.055 501.717 561.051 501.117 560.217C500.126 558.86 498.848 558.104 497.27 557.948C495.705 557.778 494.166 558.261 492.641 559.356C491.558 560.151 490.554 561.169 489.621 562.42C488.7 563.659 487.833 565.159 487.022 566.906L484.493 563.438C485.475 561.86 486.466 560.504 487.465 559.343C488.465 558.182 489.466 557.244 490.466 556.513C493.11 554.596 495.692 553.723 498.222 553.905C500.739 554.088 502.812 555.274 504.416 557.478C505.172 558.534 505.694 559.669 505.981 560.908C506.281 562.12 506.372 563.737 506.255 565.759C506.215 566.293 506.007 567.91 505.629 570.596C505.237 573.27 504.69 577.038 503.973 581.889Z" fill="#C0C0C0"/>
<path d="M564.648 527.304L568.742 521.67L549.299 507.555L546.079 514.573L542.949 512.292L546.144 505.309L548.647 501.863L571.22 518.262L575.301 512.631L578.209 514.738L567.542 529.416L564.648 527.304ZM557.775 489.288L567.608 475.758L570.516 477.865L562.978 488.238L569.212 492.776C569.407 492.152 569.655 491.56 569.929 491.002C570.203 490.436 570.529 489.901 570.894 489.402C572.954 486.558 575.366 484.871 578.131 484.343C580.895 483.815 583.608 484.517 586.268 486.451C589.019 488.443 590.532 490.845 590.806 493.659C591.08 496.464 590.089 499.419 587.833 502.524C587.063 503.593 586.177 504.619 585.186 505.601C584.194 506.573 583.099 507.517 581.873 508.436L578.405 505.919C579.709 505.301 580.895 504.545 581.965 503.65C583.034 502.757 583.999 501.702 584.886 500.486C586.32 498.518 586.933 496.583 586.737 494.683C586.529 492.782 585.538 491.187 583.764 489.897C581.991 488.609 580.178 488.161 578.3 488.559C576.436 488.956 574.78 490.138 573.358 492.106C572.68 493.027 572.119 494.023 571.65 495.092C571.194 496.151 570.842 497.316 570.581 498.584L557.775 489.288Z" fill="#C0C0C0"/>
<path d="M615.282 443.15L617.433 436.531L594.587 429.109L593.701 436.777L590.01 435.579L590.884 427.949L592.201 423.898L618.737 432.52L620.889 425.901L624.305 427.009L618.698 444.257L615.282 443.15ZM602.477 401.358C601.798 403.445 602.32 405.35 604.028 407.075C605.736 408.783 608.657 410.306 612.778 411.644C616.873 412.978 620.133 413.458 622.532 413.084C624.918 412.693 626.444 411.454 627.122 409.367C627.813 407.268 627.292 405.365 625.583 403.657C623.875 401.932 620.967 400.402 616.86 399.068C612.739 397.73 609.492 397.257 607.093 397.649C604.693 398.023 603.155 399.259 602.477 401.358ZM599.269 400.316C600.364 396.96 602.516 394.831 605.75 393.931C608.983 393.013 613.117 393.375 618.177 395.017C623.21 396.655 626.783 398.795 628.856 401.438C630.93 404.064 631.425 407.054 630.33 410.411C629.248 413.766 627.083 415.903 623.862 416.821C620.628 417.722 616.494 417.353 611.448 415.715C606.402 414.074 602.829 411.94 600.755 409.314C598.669 406.672 598.173 403.672 599.269 400.316Z" fill="#C0C0C0"/>
</g>
<defs>
<clipPath id="clip0_27_540">
<rect width="652" height="652" fill="white"/>
</clipPath>
</defs>
</svg>
