<svg width="157" height="157" viewBox="0 0 157 157" fill="none" xmlns="http://www.w3.org/2000/svg">
<rect width="157" height="157" fill="#F14754"/>
<path d="M32.6475 96L41.9111 82.2539L33.0459 68.9062H41.7368L46.269 76.7754L50.7017 68.9062H59.1436L50.2285 82.1294L59.4922 96H50.6519L45.9702 87.8569L41.2637 96H32.6475Z" fill="black"/>
<path d="M86.7956 92.5486C86.7956 95.6175 87.2888 98.1574 88.2752 100.168C90.107 103.872 93.436 105.724 98.2622 105.724C101.221 105.724 103.793 104.719 105.977 102.708C108.196 100.662 109.306 97.7341 109.306 93.9243C109.306 88.8799 107.263 85.5111 103.176 83.8178C100.851 82.8654 97.1878 82.3891 92.1854 82.3891V71.5948C97.0821 71.5242 100.499 71.048 102.437 70.1661C105.783 68.6845 107.457 65.6861 107.457 61.1708C107.457 58.2429 106.594 55.8618 104.867 54.0275C103.176 52.1931 100.781 51.276 97.681 51.276C94.123 51.276 91.4985 52.4048 89.8076 54.6624C88.1519 56.9201 87.3593 59.9361 87.4297 63.7107H73.3739C73.5148 59.9009 74.1665 56.2851 75.329 52.8634C76.562 49.8649 78.4995 47.0958 81.1416 44.5559C83.1143 42.7569 85.457 41.3811 88.1695 40.4287C90.882 39.4762 94.211 39 98.1565 39C105.484 39 111.385 40.9049 115.858 44.7147C120.368 48.4892 122.622 53.5689 122.622 59.9538C122.622 64.4691 121.283 68.2789 118.606 71.3831C116.915 73.3233 115.154 74.6461 113.322 75.3516C114.696 75.3516 116.669 76.5334 119.24 78.8969C123.08 82.4597 125 87.3278 125 93.501C125 99.9917 122.745 105.706 118.236 110.645C113.762 115.548 107.122 118 98.3151 118C87.4649 118 79.9262 114.455 75.6989 107.364C73.4796 103.59 72.2466 98.6513 72 92.5486H86.7956Z" fill="black"/>
</svg>
