<svg width="157" height="157" viewBox="0 0 157 157" fill="none" xmlns="http://www.w3.org/2000/svg">
<rect width="157" height="157" fill="black"/>
<path d="M68.55 78.5501C68.55 86.9057 69.2333 93.3062 70.6 97.7513C71.9667 102.163 74.7667 104.369 79 104.369C83.2333 104.369 86 102.163 87.3 97.7513C88.6333 93.3062 89.3 86.9057 89.3 78.5501C89.3 69.7934 88.6333 63.3095 87.3 59.0983C86 54.887 83.2333 52.7814 79 52.7814C74.7667 52.7814 71.9667 54.887 70.6 59.0983C69.2333 63.3095 68.55 69.7934 68.55 78.5501ZM79 41C88.2333 41 94.7 44.2587 98.4 50.7761C102.133 57.2934 104 66.5515 104 78.5501C104 90.5488 102.133 99.7901 98.4 106.274C94.7 112.758 88.2333 116 79 116C69.7667 116 63.2833 112.758 59.55 106.274C55.85 99.7901 54 90.5488 54 78.5501C54 66.5515 55.85 57.2934 59.55 50.7761C63.2833 44.2587 69.7667 41 79 41Z" fill="white"/>
</svg>
