<svg width="157" height="157" viewBox="0 0 157 157" fill="none" xmlns="http://www.w3.org/2000/svg">
<rect width="157" height="157" fill="#00D2DC"/>
<path d="M32.6475 95L41.9111 81.2539L33.0459 67.9062H41.7368L46.269 75.7754L50.7017 67.9062H59.1436L50.2285 81.1294L59.4922 95H50.6519L45.9702 86.8569L41.2637 95H32.6475Z" fill="black"/>
<path d="M72 116C72.1423 110.504 73.3343 105.483 75.576 100.938C77.7466 95.8296 82.8704 90.4214 90.9476 84.7138C97.9574 79.7461 102.494 76.1876 104.558 74.0384C107.725 70.6914 109.308 67.0272 109.308 63.046C109.308 59.8046 108.401 57.1094 106.586 54.9602C104.771 52.811 102.174 51.7364 98.7936 51.7364C94.1678 51.7364 91.0188 53.4452 89.3464 56.8627C88.3857 58.8357 87.8164 61.9714 87.6385 66.2697H72.854C73.1031 59.7518 74.2951 54.4846 76.43 50.4681C80.4864 42.8227 87.6918 39 98.0463 39C106.23 39 112.742 41.2549 117.581 45.7646C122.42 50.2391 124.84 56.1757 124.84 63.5745C124.84 69.2469 123.132 74.2851 119.716 78.6891C117.474 81.6134 113.792 84.8723 108.668 88.466L102.583 92.7467C98.7758 95.4244 96.1605 97.3622 94.7372 98.5601C93.3494 99.7579 92.1752 101.15 91.2145 102.735H125V116H72Z" fill="black"/>
</svg>
